<svg id="Ebene_1" data-name="Ebene 1" xmlns="http://www.w3.org/2000/svg" width="258" height="258" viewBox="0 0 258 258">
  <defs>
    <style>
      .cls-1 {
        fill: none;
        stroke: #77bc1f;
        stroke-miterlimit: 10;
        stroke-width: 7.5px;
      }

      .cls-2 {
        fill: #77bc1f;
      }
    </style>
  </defs>
  <title>131-24h</title>
  <g>
    <g>
      <g>
        <path class="cls-1" d="M155.37,189.68A66.72,66.72,0,1,1,174.78,81.82c.33.34.66.67,1,1"/>
        <polygon class="cls-2" points="156.46 89.28 190.1 105.61 187.42 68.31 156.46 89.28"/>
      </g>
      <path class="cls-1" d="M177.64,173.13a67,67,0,0,1-11.85,10.58"/>
      <path class="cls-1" d="M190.38,151.63a66.78,66.78,0,0,1-5.56,11.7"/>
      <path class="cls-1" d="M194.32,129a66.86,66.86,0,0,1-.94,11.21"/>
    </g>
    <circle class="cls-1" cx="129" cy="129" r="125"/>
  </g>
  <g>
    <path class="cls-2" d="M123.65,149.19H97.79v-4.63a122.05,122.05,0,0,0,10.14-10c6.21-6.84,8.18-11.34,8.18-15,0-4.5-2.79-6.78-6.34-6.78-3.74,0-6.53,2-9.25,4.12L97,112.75c4.63-4.06,9.32-6.15,15-6.15,7.1,0,12.11,5.07,12.11,12,0,4.12-2.35,8.68-6,13-1.71,2.09-4.24,4.56-6.72,7.1-2.21,2.22-4.49,4.56-5.32,5,1.27-.12,3.93-.25,6.15-.25h13Z"/>
    <path class="cls-2" d="M158.88,141.27a17.47,17.47,0,0,1-1.84-.13,12,12,0,0,1,.19,2.41v6.59l-6.65,1.2V143.1c0-.76.06-1.71.06-2-.19,0-1,.13-2.22.13h-16.6v-5l13.43-29.15h7.35l-10.77,23.39c-.89,2-2.34,4.43-2.66,5,.19,0,1-.12,1.77-.12h8.37c.7,0,1.33.06,1.46.06,0-.19-.07-1.14-.07-1.39,0-1.53.13-3.93.32-6.28l.76-9.06,5.45-1.39V134c0,.26-.06,1.27-.06,1.52.25,0,1.2-.12,1.71-.12H162v5.83Z"/>
  </g>
</svg>
