<svg id="Ebene_1" data-name="Ebene 1" xmlns="http://www.w3.org/2000/svg" width="258" height="258" viewBox="0 0 258 258">
  <defs>
    <style>
      .cls-1, .cls-2 {
        fill: none;
        stroke: #77bc1f;
        stroke-width: 7.5px;
      }

      .cls-1 {
        stroke-miterlimit: 10;
      }

      .cls-2 {
        stroke-linecap: round;
        stroke-linejoin: round;
      }
    </style>
  </defs>
  <title>123-AI-KuenstlicheIntelligenz</title>
  <circle class="cls-1" cx="129" cy="129" r="125"/>
  <g>
    <path class="cls-2" d="M125.51,76.7V57.91H112.7a1.5,1.5,0,0,0-1.43,1L106.8,72.7a1.51,1.51,0,0,1-.85.93L92.93,79a1.5,1.5,0,0,1-1.26,0L78.79,72.41a1.5,1.5,0,0,0-1.75.27l-12.1,12.1a1.52,1.52,0,0,0-.28,1.75l6.57,12.88a1.54,1.54,0,0,1,0,1.26l-5.4,13a1.53,1.53,0,0,1-.92.86l-14,4.56a1.07,1.07,0,0,0-.74,1v17.43a1.5,1.5,0,0,0,1,1.43L65,143.45a1.53,1.53,0,0,1,.92.86l5.4,13a1.54,1.54,0,0,1,0,1.26l-6.57,12.88a1.52,1.52,0,0,0,.28,1.75L77,185.32a1.5,1.5,0,0,0,1.75.27L91.67,179a1.5,1.5,0,0,1,1.26-.05l13,5.39a1.51,1.51,0,0,1,.85.93l4.47,13.75a1.5,1.5,0,0,0,1.43,1h12.81V181.3"/>
    <path class="cls-2" d="M121.57,152.87h-.08a23.87,23.87,0,0,1,.08-47.74"/>
    <g>
      <g>
        <circle class="cls-1" cx="155.86" cy="182.11" r="11.6"/>
        <line class="cls-2" x1="147.66" y1="173.91" x2="140.14" y2="166.39"/>
      </g>
      <g>
        <circle class="cls-1" cx="189.97" cy="167.23" r="11.6"/>
        <polyline class="cls-2" points="181.77 159.03 171.33 148.18 140.14 148.18"/>
      </g>
      <circle class="cls-1" cx="204.74" cy="128.6" r="11.6"/>
      <line class="cls-2" x1="193.14" y1="128.6" x2="140.14" y2="128.6"/>
      <g>
        <circle class="cls-1" cx="155.86" cy="75.18" r="11.6"/>
        <line class="cls-2" x1="147.66" y1="83.38" x2="140.14" y2="90.9"/>
      </g>
      <g>
        <circle class="cls-1" cx="189.97" cy="90.06" r="11.6"/>
        <polyline class="cls-2" points="181.77 98.27 171.33 109.11 140.14 109.11"/>
      </g>
    </g>
  </g>
</svg>
