<svg id="Ebene_1" data-name="Ebene 1" xmlns="http://www.w3.org/2000/svg" width="258" height="258" viewBox="0 0 258 258">
  <defs>
    <style>
      .cls-1 {
        fill: none;
        stroke: #77bc1f;
        stroke-miterlimit: 10;
        stroke-width: 7.5px;
      }

      .cls-2 {
        fill: #77bc1f;
      }
    </style>
  </defs>
  <title>088-android</title>
  <g>
    <circle class="cls-1" cx="129" cy="129" r="125"/>
    <path class="cls-1" d="M152.18,57.64l7.33-13.39A1.46,1.46,0,1,0,157,42.84l-7.4,13.53a51.19,51.19,0,0,0-41.12,0L101,42.86a1.44,1.44,0,0,0-2-.58,1.43,1.43,0,0,0-.58,2l7.34,13.38C91.39,65.07,83.65,78.22,83.66,94.47h90.63C174.29,78.21,166.57,65.09,152.18,57.64Z"/>
    <path class="cls-1" d="M195.3,116a10.51,10.51,0,1,0-21,0v44a10.51,10.51,0,1,0,21,0Z"/>
    <path class="cls-1" d="M83.66,107.54l0,63.46A11.29,11.29,0,0,0,95,182.3h5.69v23.45a10.58,10.58,0,1,0,21.16,0V182.3h14.29v23.45a10.59,10.59,0,0,0,21.17,0V182.29H163A11.29,11.29,0,0,0,174.29,171V107.52Z"/>
    <path class="cls-1" d="M73.15,105.54A10.51,10.51,0,0,0,62.64,116v44a10.51,10.51,0,1,0,21,0V116a10.5,10.5,0,0,0-10.51-10.5"/>
    <path class="cls-2" d="M148.54,80.85a5,5,0,1,1,5-5,5,5,0,0,1-5,5"/>
    <path class="cls-2" d="M109.45,80.86a5,5,0,1,1,5-5,5,5,0,0,1-5,5"/>
  </g>
</svg>
