<svg id="Ebene_1" data-name="Ebene 1" xmlns="http://www.w3.org/2000/svg" width="258" height="258" viewBox="0 0 258 258">
  <defs>
    <style>
      .cls-1 {
        fill: none;
        stroke: #77bc1f;
        stroke-miterlimit: 10;
        stroke-width: 7.5px;
      }
    </style>
  </defs>
  <title>056-Anexia</title>
  <g>
    <path class="cls-1" d="M254,129A125,125,0,1,1,129,4,125,125,0,0,1,254,129Z"/>
    <path class="cls-1" d="M129,79l16.42-17.63,6.33,23.2,22.71-8-5.14,23.5,23.78,3.53-15.48,18.4,19.45,14.18-22.29,9.11L185.44,167l-23.95-2.32-.62,24.08-20.12-13.18-11.74,21-11.75-21-20.1,13.18-.65-24.08L72.57,167l10.64-21.6-22.29-9.11,19.46-14.18-15.47-18.4,23.78-3.53-5.13-23.5,22.68,8,6.34-23.2Z"/>
  </g>
</svg>
