<svg xmlns="http://www.w3.org/2000/svg" viewBox="0 0 500 500"><rect x="141.76" y="74.05" width="7.84" height="37.36" transform="translate(-26.97 96.36) rotate(-33.68)" style="fill:#77bc1f"/><polygon points="173.89 64.15 165.87 68.06 179.45 96.05 172.59 99.39 159 71.39 150.78 75.37 148.05 69.77 172.28 58 173.89 64.15" style="fill:#77bc1f"/><path d="M230.8,69.5a12.08,12.08,0,0,1-.14,5.27,11.46,11.46,0,0,1-2.35,4.47,13.81,13.81,0,0,1-4.31,3.4,21.49,21.49,0,0,1-6.09,2,26.53,26.53,0,0,1-13.13-1l1.68-6.27a35.78,35.78,0,0,0,5.34,1.26,16.17,16.17,0,0,0,5.3-.17c4.29-.79,6.14-2.87,5.52-6.21-.43-2.29-2.33-3.57-5.69-3.87L212.65,68a16.58,16.58,0,0,1-4.83-1,8.53,8.53,0,0,1-3.27-2.29A10.49,10.49,0,0,1,202,59.42a11,11,0,0,1,.09-4.81,10.71,10.71,0,0,1,2-4.1,12.69,12.69,0,0,1,3.76-3.09A17.23,17.23,0,0,1,213,45.61a23.08,23.08,0,0,1,6.79-.24A19.62,19.62,0,0,1,226,47L223.47,53a22.82,22.82,0,0,0-4.92-1.34,13.81,13.81,0,0,0-4.16.11,5.69,5.69,0,0,0-3.48,1.89,3.87,3.87,0,0,0-.86,3.29A3,3,0,0,0,211.33,59a8.09,8.09,0,0,0,3.48.86l4.66.39A13.49,13.49,0,0,1,227.13,63a10.58,10.58,0,0,1,3.67,6.49" style="fill:#77bc1f"/><polygon points="239.66 81.05 239.05 43.69 260.34 43.35 259.47 49.5 246.79 49.7 246.93 58.36 257.52 58.18 257.61 64.31 247.03 64.48 247.19 74.48 261.32 74.25 261.44 80.7 239.66 81.05" style="fill:#77bc1f"/><path d="M290,57.61q.64-3.54-1.84-5a6.31,6.31,0,0,0-1.64-.7,19.28,19.28,0,0,0-2.43-.59l-2.65-.48-1.8,9.94,2.48.46a18.21,18.21,0,0,0,3.64.38,4.14,4.14,0,0,0,2.15-.59A4.92,4.92,0,0,0,290,57.61m-3.48,26c-.25-.66-.46-1.24-.64-1.75s-.36-1-.54-1.49-.37-1-.55-1.55-.37-1.16-.6-1.86c-.63-1.82-1.15-3.34-1.56-4.54s-.79-2.18-1.13-2.94a11.54,11.54,0,0,0-.92-1.72,3.37,3.37,0,0,0-.85-.9,3.84,3.84,0,0,0-1.1-.53L275.83,81.7l-7.24-1.31,6.69-36.76L289,46.12a12.27,12.27,0,0,1,4.27,1.57,9.78,9.78,0,0,1,3,2.81,9.89,9.89,0,0,1,1.58,3.82,12.24,12.24,0,0,1,0,4.55,12.05,12.05,0,0,1-1.34,3.78,10.19,10.19,0,0,1-2.34,2.87,8.75,8.75,0,0,1-3,1.73,7.43,7.43,0,0,1-3.34.29,7.24,7.24,0,0,1,.73.89c.15.25.32.55.5.92a18.66,18.66,0,0,1,.92,1.94c.35.85.74,1.78,1.15,2.83l1.27,3.24c.43,1.11.83,2.19,1.21,3.22s.71,2,1,2.78.53,1.45.68,1.88Z" style="fill:#77bc1f"/><path d="M315.28,93.85l-6.35-2.5,1.94-39.66,7.65,3-1.35,20.36c0,.88-.12,1.87-.25,3s-.29,2.35-.52,3.72a17.14,17.14,0,0,1,1.08-1.57c.4-.56.82-1.1,1.24-1.64s.85-1.09,1.26-1.59.79-1,1.13-1.38l12.67-14.9,7.36,2.9Z" style="fill:#77bc1f"/><polygon points="331.1 100.88 349.72 68.5 356.52 72.4 337.9 104.8 331.1 100.88" style="fill:#77bc1f"/><path d="M367.75,123.55a15.58,15.58,0,0,1-5.34-.83,17.41,17.41,0,0,1-5-2.86q-6.06-4.77-6.38-11.62t4.75-13.3A24.57,24.57,0,0,1,365,87.4a16.23,16.23,0,0,1,8.63-1.29,15.56,15.56,0,0,1,8,3.37,17.9,17.9,0,0,1,3.7,3.94,11.67,11.67,0,0,1,1.89,4.24l-5.82,1.91A10,10,0,0,0,378,94.23a7.77,7.77,0,0,0-3.36-1.57,7,7,0,0,0-3.62.16q-3.57,1.14-7.61,6.25a41.21,41.21,0,0,0-3.54,5.05,11.45,11.45,0,0,0-1.45,3.76,7.66,7.66,0,0,0,3.07,7.75,9.08,9.08,0,0,0,2.84,1.56,10.39,10.39,0,0,0,3.68.51Z" style="fill:#77bc1f"/><polygon points="371.33 131.16 399.35 106.45 413.43 122.42 408.19 125.74 399.8 116.23 393.31 121.96 400.32 129.9 395.73 133.95 388.71 126.01 381.21 132.63 390.57 143.22 385.74 147.48 371.33 131.16" style="fill:#77bc1f"/><path d="M413.18,168.92a11.89,11.89,0,0,1-5,1.71,11.45,11.45,0,0,1-5-.64,14,14,0,0,1-4.7-2.85,21.16,21.16,0,0,1-4-5,25.78,25.78,0,0,1-2.61-6.09,26.21,26.21,0,0,1-1-6.59l6.47-.62a33.46,33.46,0,0,0,.69,5.45,16.46,16.46,0,0,0,2,4.91c2.25,3.76,4.84,4.74,7.76,3,2-1.2,2.54-3.42,1.63-6.68l-1.15-4.13a16.42,16.42,0,0,1-.75-4.89,8.54,8.54,0,0,1,1-3.86,10.78,10.78,0,0,1,4.09-4.26,11.27,11.27,0,0,1,4.54-1.6,10.81,10.81,0,0,1,4.55.47,13,13,0,0,1,4.22,2.43,17.21,17.21,0,0,1,3.5,4.23,23,23,0,0,1,2.59,6.28,19.27,19.27,0,0,1,.58,6.36l-6.42-.29a22.07,22.07,0,0,0-.49-5.07,13,13,0,0,0-1.56-3.86,5.61,5.61,0,0,0-3-2.61,3.85,3.85,0,0,0-3.4.35,3,3,0,0,0-1.5,1.94,7.93,7.93,0,0,0,.4,3.55l1.26,4.51a13.57,13.57,0,0,1,.12,8.14,10.58,10.58,0,0,1-4.8,5.69" style="fill:#77bc1f"/><path d="M441,203a3.68,3.68,0,0,0,2.28-1.53,3.11,3.11,0,0,0,.42-2.56,3.3,3.3,0,0,0-1.54-2.2,3.42,3.42,0,0,0-2.67-.31,5.51,5.51,0,0,0-1,.35,3.87,3.87,0,0,0-.88.68,7.79,7.79,0,0,0-.92,1.09c-.31.45-.68,1-1.1,1.73l-.31.51q2.61,3,5.76,2.24m-13.49-2.78a5.47,5.47,0,0,0-5.48-1.64,4.94,4.94,0,0,0-3.46,2.45,6.52,6.52,0,0,0-.28,4.67c.62,2.52,1.66,4.18,3.12,5.05Zm-10.66,18.51,1.65-2.74a8.91,8.91,0,0,1-1.4-1.2,13,13,0,0,1-1.25-1.46,19.69,19.69,0,0,1-2.72-6.58c-1-4.21-1-7.67.17-10.35a8.88,8.88,0,0,1,6.47-5.19c4-1,7.55.45,10.64,4.32a19.77,19.77,0,0,1,1.4-2.67,6.73,6.73,0,0,1,1.47-1.65,8.06,8.06,0,0,1,1.76-1.06,11.33,11.33,0,0,1,2.17-.77,8.39,8.39,0,0,1,3.72-.13,8.28,8.28,0,0,1,3.31,1.46,10.75,10.75,0,0,1,2.6,2.89,13.63,13.63,0,0,1,1.7,4.06,14.69,14.69,0,0,1,.44,4.43,10.58,10.58,0,0,1-.87,3.75,8,8,0,0,1-2.08,2.84,7.33,7.33,0,0,1-3.14,1.6,8.33,8.33,0,0,1-2.88.21,7.21,7.21,0,0,1-2.56-.75,8.72,8.72,0,0,1-2-1.42c-.62-.56-1.41-1.36-2.36-2.38l-.38-.41L428.46,213h1.14a4.54,4.54,0,0,0,1-.12c.35-.05.76-.14,1.24-.24s1.09-.23,1.86-.43l.36-.09,1.44,5.85-.32.08a25,25,0,0,1-10.12.71l-5.8,9.67Z" style="fill:#77bc1f"/><path d="M430.68,274.37a11.88,11.88,0,0,1-5.09-1.39,11.68,11.68,0,0,1-3.8-3.34,14.49,14.49,0,0,1-2.27-5,21,21,0,0,1-.51-6.37,24.87,24.87,0,0,1,1.25-6.51,26.32,26.32,0,0,1,2.85-6l5.68,3.13a35.78,35.78,0,0,0-2.48,4.89,16.41,16.41,0,0,0-1.1,5.2q-.37,6.54,4.73,6.83c2.33.13,4-1.41,5.1-4.61l1.36-4.07a16.48,16.48,0,0,1,2.14-4.45,8.49,8.49,0,0,1,3-2.63,10.63,10.63,0,0,1,5.77-1.24A11.36,11.36,0,0,1,452,250a10.64,10.64,0,0,1,3.49,3,12.41,12.41,0,0,1,2.12,4.38,16.89,16.89,0,0,1,.52,5.46,23.32,23.32,0,0,1-1.38,6.66,19.6,19.6,0,0,1-3.08,5.58l-5.17-3.86a22.45,22.45,0,0,0,2.46-4.46,13.24,13.24,0,0,0,.88-4.07,5.76,5.76,0,0,0-1-3.82,3.86,3.86,0,0,0-3-1.62,3,3,0,0,0-2.33.75,7.89,7.89,0,0,0-1.66,3.17l-1.49,4.43a13.63,13.63,0,0,1-4.48,6.8,10.41,10.41,0,0,1-7.17,2" style="fill:#77bc1f"/><path d="M430,307.17a43.89,43.89,0,0,0,4.89,1.08,20.46,20.46,0,0,0,3.73.28,8,8,0,0,0,1.65-.27,5.85,5.85,0,0,0,1.81-.85,7,7,0,0,0,1.66-1.54,7.22,7.22,0,0,0,1.22-6,6,6,0,0,0-1.69-2.91q-2.91-2.76-9.35-4.52c-6.25-1.71-10.43-1.71-12.54,0a7.22,7.22,0,0,0-2.43,3.95,6,6,0,0,0,1.56,6.31q2.6,2.52,9.49,4.42m-2.08,8.4a25.38,25.38,0,0,1-9.95-4.93,14,14,0,0,1-5.32-11.43,20.88,20.88,0,0,1,3.76-10.57,12.59,12.59,0,0,1,5.22-3.78c4.31-1.79,9.16-2,14.51-.48a24.15,24.15,0,0,1,9.68,4.93,15.17,15.17,0,0,1,4.94,7.83,14.54,14.54,0,0,1,.35,3.89,17.25,17.25,0,0,1-.64,4.05,16.54,16.54,0,0,1-3,6.11,13.83,13.83,0,0,1-5,3.9,16.92,16.92,0,0,1-6.59,1.5,26.28,26.28,0,0,1-7.92-1" style="fill:#77bc1f"/><polygon points="425.32 348.47 430.55 337.81 422.88 334.05 418.69 342.58 413.19 339.88 417.39 331.35 402.47 324.01 405.79 317.25 439.32 333.74 430.38 351.92 425.32 348.47" style="fill:#77bc1f"/><polygon points="406.58 376.27 411.74 368.99 386.35 350.99 390.77 344.77 416.15 362.77 421.43 355.31 426.53 358.91 410.96 380.89 406.58 376.27" style="fill:#77bc1f"/><path d="M352.89,385.47,359,380l12.6,9.15c.95.7,1.87,1.37,2.75,2.05s1.71,1.32,2.45,1.93,1.38,1.16,1.92,1.63.94.84,1.2,1.08c-.14-.21-.4-.6-.76-1.18s-.82-1.27-1.32-2.07-1.09-1.67-1.69-2.66-1.23-2-1.83-3.06l-7.86-13.51,6.38-5.68,31.73,22.22-5.95,5.28-12.2-8.85c-1.33-1-2.57-1.91-3.68-2.81l-2.93-2.39-2-1.76c-.51-.47-.84-.77-1-.89.24.33.58.83,1,1.49s1,1.47,1.58,2.39,1.23,1.9,1.9,3,1.32,2.18,1.94,3.31l7.55,13.51-6.15,5.46L371,397.41c-.68-.5-1.45-1.08-2.3-1.78s-1.65-1.34-2.42-2l-2-1.68c-.57-.47-.92-.76-1-.84.2.27.55.81,1.1,1.65l1.84,2.82c.67,1.06,1.36,2.14,2.05,3.25s1.26,2.07,1.7,2.88l7.14,12.64-5.9,5.25Z" style="fill:#77bc1f"/><path d="M334.94,414.16l.87.84,1.38,1.46,1.63,1.72c.57.59,1.07,1.14,1.5,1.63l4.46,5.11a9.77,9.77,0,0,0-.28-1.13c-.14-.53-.31-1.15-.5-1.85s-.37-1.41-.55-2.16-.37-1.44-.53-2c-.33-1.37-.6-2.57-.83-3.59s-.46-2.16-.71-3.45ZM323.85,403l6.53,6.55,9.65-5.2-1.89-9.06,6.91-3.72,7,38.79-7.16,3.86-28.13-27.39Z" style="fill:#77bc1f"/><path d="M303,438c.71,2.3,2,3.48,3.91,3.57a6.58,6.58,0,0,0,1.79-.12,21.88,21.88,0,0,0,2.43-.6l2.57-.8-3-9.66-2.41.74a20,20,0,0,0-3.41,1.34,4.17,4.17,0,0,0-1.62,1.51,4.89,4.89,0,0,0-.28,4m-8.9-24.71c.54.48,1,.9,1.38,1.27s.78.73,1.18,1.08.78.71,1.18,1.11.87.85,1.41,1.38l3.46,3.31c.92.88,1.72,1.58,2.35,2.09a10.56,10.56,0,0,0,1.61,1.1,3,3,0,0,0,1.18.41,3.55,3.55,0,0,0,1.22,0L304.5,410l7-2.16,11,35.72-13.31,4.09a12.07,12.07,0,0,1-4.52.57,9.83,9.83,0,0,1-4-1.1,10.17,10.17,0,0,1-3.16-2.67,12.62,12.62,0,0,1-2.06-4.06,11.86,11.86,0,0,1-.54-4,10.72,10.72,0,0,1,.74-3.63,8.51,8.51,0,0,1,1.89-2.91,7.07,7.07,0,0,1,2.85-1.8,5.73,5.73,0,0,1-1.07-.46c-.25-.14-.54-.34-.89-.58a19.8,19.8,0,0,1-1.69-1.3c-.71-.59-1.49-1.25-2.33-2l-2.62-2.28c-.9-.8-1.75-1.56-2.56-2.31l-2.18-2c-.66-.59-1.14-1-1.47-1.35Z" style="fill:#77bc1f"/><polygon points="279.05 417.24 283.35 454.36 262.21 456.81 262.45 450.61 275.06 449.15 274.06 440.55 263.54 441.76 262.84 435.67 273.36 434.46 272.21 424.54 258.16 426.17 257.42 419.74 279.05 417.24" style="fill:#77bc1f"/><path d="M215.08,434.27a42.51,42.51,0,0,0-.53,5.91,11.8,11.8,0,0,0,.79,4.73,6.23,6.23,0,0,0,1.88,2.65,7.42,7.42,0,0,0,3.48,1.34l3.39.52,3.9-25-4-.63a5.94,5.94,0,0,0-5.82,2c-1.44,1.72-2.48,4.55-3.1,8.49m-8.45-.62a26.26,26.26,0,0,1,2-6.9,18.47,18.47,0,0,1,3.69-5.32,14.26,14.26,0,0,1,4.61-3.07,11.31,11.31,0,0,1,5.19-.84c.72,0,1.51.11,2.39.2s1.86.24,3,.41l9,1.4-5.75,36.92-7.44-1.16c-1.06-.17-2.21-.37-3.45-.59s-2.21-.44-2.93-.62a13.69,13.69,0,0,1-4.21-1.79,11.52,11.52,0,0,1-3.29-3.14,15.89,15.89,0,0,1-2.85-6.73,26.39,26.39,0,0,1,.07-8.77" style="fill:#77bc1f"/><polygon points="202.35 413.29 189.78 448.46 169.73 441.3 172.7 435.85 184.65 440.13 187.56 431.97 177.6 428.42 179.66 422.64 189.63 426.2 192.99 416.79 179.68 412.04 181.85 405.96 202.35 413.29" style="fill:#77bc1f"/><path d="M163,395.27l5.9,3.42-7.82,38.93L154,433.51l4.37-19.94c.17-.86.4-1.83.69-2.9s.64-2.28,1.07-3.6c-.38.44-.81.9-1.31,1.39s-1,1-1.47,1.44-1,.94-1.48,1.39-.93.84-1.34,1.18L139.8,425.32l-6.85-4Z" style="fill:#77bc1f"/><polygon points="147.19 385.47 123.03 413.96 106.8 400.19 111.49 396.15 121.17 404.36 126.78 397.75 118.7 390.9 122.66 386.23 130.74 393.09 137.21 385.44 126.42 376.31 130.59 371.39 147.19 385.47" style="fill:#77bc1f"/><polygon points="113.49 350.81 126.26 365.86 97.76 390.02 92.79 384.16 116.53 364.04 107.87 353.84 113.49 350.81" style="fill:#77bc1f"/><path d="M81.46,335.27a47.27,47.27,0,0,0-4.25,2.66,20.54,20.54,0,0,0-2.82,2.42,7.5,7.5,0,0,0-1,1.36,6,6,0,0,0-.7,1.88,7.34,7.34,0,0,0-.08,2.26,6.49,6.49,0,0,0,.86,2.54A6.73,6.73,0,0,0,75.93,351a6,6,0,0,0,3.25.9q4-.11,9.82-3.37c5.65-3.18,8.62-6.1,8.92-8.81a7.48,7.48,0,0,0-1.06-4.52,6,6,0,0,0-5.54-3.4q-3.63,0-9.86,3.52M77,327.84a25.83,25.83,0,0,1,10.55-3.5,14.11,14.11,0,0,1,11.82,4.41,18.52,18.52,0,0,1,2.34,3.34,18.12,18.12,0,0,1,2.4,6.83,12.5,12.5,0,0,1-1.06,6.34q-2.72,6.47-10,10.53a24.21,24.21,0,0,1-10.35,3.31,15.08,15.08,0,0,1-9-2.11,14.56,14.56,0,0,1-3-2.51,18.45,18.45,0,0,1-2.39-3.34,16.58,16.58,0,0,1-2.13-6.49,14.08,14.08,0,0,1,.81-6.28,17.12,17.12,0,0,1,3.65-5.72A26.52,26.52,0,0,1,77,327.84" style="fill:#77bc1f"/><path d="M61.81,303.38a6.06,6.06,0,0,0-3.53,2.48,4.75,4.75,0,0,0-.3,4l1.43,4.56L70.29,311l-1.18-3.75c-.22-.72-.44-1.31-.64-1.8a5.49,5.49,0,0,0-.68-1.19,3,3,0,0,0-.86-.75,5.11,5.11,0,0,0-1.15-.45,5,5,0,0,0-1.77-.17,8.94,8.94,0,0,0-2.2.45m-2.6-7.79a12.43,12.43,0,0,1,6.75-.35,10.71,10.71,0,0,1,5.53,3.25,11.53,11.53,0,0,1,.91,1.1c.26.39.54.82.81,1.32a18,18,0,0,1,.81,1.81c.28.7.57,1.54.88,2.54l1.23,3.94,13.14-4.1,2.24,7.17L55.85,323.42,52.92,314c-.46-1.51-.83-2.79-1.09-3.86a19.14,19.14,0,0,1-.5-2.77,9.85,9.85,0,0,1,0-2c0-.59.14-1.18.25-1.79a9.83,9.83,0,0,1,2.58-5,11.51,11.51,0,0,1,5.06-3" style="fill:#77bc1f"/><path d="M80.59,251.09,60.8,254c-1.17.16-2.25.31-3.23.43s-2,.23-3,.31c1.08.13,2,.27,2.85.4s1.82.31,3,.57l20.82,4.38.47,6.37-19.17,6.76c-.91.33-2,.67-3.1,1s-2.18.68-3.16.93c1-.07,2.07-.12,3.12-.12s2.23-.08,3.38-.09l19.55-.16.56,7.45-37.52-.71-.71-9.6L63,265.66c.66-.24,1.25-.43,1.76-.59l1.42-.43,1.29-.36c.43-.12.87-.23,1.34-.34-1.89-.18-4-.48-6.16-.9l-18.88-3.66L43,249.85l37-6.1Z" style="fill:#77bc1f"/><polygon points="81.22 235.28 44.25 229.99 47.27 208.91 53.19 210.73 51.39 223.29 59.97 224.53 61.46 214.04 67.53 214.91 66.03 225.39 75.92 226.81 77.92 212.81 84.3 213.74 81.22 235.28" style="fill:#77bc1f"/><path d="M91.41,189.63,75.82,191c-1.31.13-2.6.24-3.89.34l-3.74.28c-1.18.09-2.27.16-3.22.2s-1.64,0-2.18.05c.67.16,1.41.35,2.23.6l2.63.79c.9.26,1.77.54,2.65.82l2.42.8,15.17,5-2.36,6.87L50.2,194.63l2.71-7.88,16.46-1.9q3.28-.36,6.26-.45c2-.05,3.66-.05,5.07,0-.7-.16-1.49-.36-2.37-.59s-1.79-.47-2.7-.73-1.8-.51-2.65-.76-1.56-.49-2.18-.7l-14.49-4.8,2.33-6.76L94,182.21Z" style="fill:#77bc1f"/><polygon points="81.77 139.25 77.33 147 104.32 162.46 100.53 169.09 73.54 153.61 68.99 161.55 63.59 158.44 76.97 135.08 81.77 139.25" style="fill:#77bc1f"/><path d="M114.51,112.72a6.6,6.6,0,0,0-2.48.48,5.86,5.86,0,0,0-2,1.37,5.76,5.76,0,0,0-1.31,2,6.86,6.86,0,0,0-.43,2.39,7,7,0,0,0,.51,2.31,5.81,5.81,0,0,0,1.36,2,5.7,5.7,0,0,0,2,1.29,6.12,6.12,0,0,0,2.26.42v3.38l.09-3.38a6.56,6.56,0,0,0,2.35-.5,5.83,5.83,0,0,0,2-1.37,5.48,5.48,0,0,0,1.29-2,6.17,6.17,0,0,0,.42-2.36,6.25,6.25,0,0,0-.49-2.34,5.92,5.92,0,0,0-1.36-2,6,6,0,0,0-2-1.3,6.17,6.17,0,0,0-2.21-.41m0,19a13.09,13.09,0,0,1-4.63-.85,12.9,12.9,0,0,1-7.26-7,13,13,0,0,1-1-4.76,13.35,13.35,0,0,1,.84-4.85,12.85,12.85,0,0,1,7-7.27,12.72,12.72,0,0,1,4.8-1h0a13.17,13.17,0,0,1,4.77.83,12.91,12.91,0,0,1,7.28,7,13,13,0,0,1,.15,9.6,12.47,12.47,0,0,1-2.77,4.35,12.64,12.64,0,0,1-4.25,2.92,13.37,13.37,0,0,1-4.78,1Z" style="fill:#77bc1f"/><path d="M442.24,409.83l-11.53-9.61a233,233,0,0,0,43.91-80.93L489,323.71a248.19,248.19,0,0,1-46.72,86.12" style="fill:#77bc1f"/><path d="M351.29,478.61l-6.08-13.71a234,234,0,0,0,75.22-53.13l10.87,10.35a249.13,249.13,0,0,1-80,56.49" style="fill:#77bc1f"/><path d="M314.72,491.54,310.84,477c6.71-1.78,13.45-3.92,20.07-6.33l5.14,14.08c-7,2.58-14.2,4.85-21.33,6.75" style="fill:#77bc1f"/><path d="M15.21,336.05c-2.56-7-4.83-14.17-6.75-21.34L23,310.83c1.79,6.75,3.93,13.49,6.33,20.06Z" style="fill:#77bc1f"/><path d="M77.88,431.32a249,249,0,0,1-56.49-80l13.71-6.07a234,234,0,0,0,53.12,75.2Z" style="fill:#77bc1f"/><path d="M176.29,489a248.33,248.33,0,0,1-86.12-46.71l9.61-11.54a233.22,233.22,0,0,0,80.93,43.91Z" style="fill:#77bc1f"/><path d="M169.1,29.27l-5.17-14.09c7-2.56,14.15-4.83,21.35-6.75l3.87,14.5c-6.76,1.8-13.5,3.94-20.05,6.34" style="fill:#77bc1f"/><path d="M79.56,88.19,68.68,77.86a249.18,249.18,0,0,1,80-56.5l6.09,13.71A234.28,234.28,0,0,0,79.56,88.19" style="fill:#77bc1f"/><path d="M25.39,180.69l-14.34-4.42A248.26,248.26,0,0,1,57.76,90.15l11.53,9.6a233.33,233.33,0,0,0-43.9,80.94" style="fill:#77bc1f"/><path d="M400.23,69.26a233.37,233.37,0,0,0-80.93-43.9L323.72,11a248.14,248.14,0,0,1,86.11,46.71Z" style="fill:#77bc1f"/><path d="M464.9,154.76a234.06,234.06,0,0,0-53.12-75.22l10.34-10.88a249.24,249.24,0,0,1,56.49,80Z" style="fill:#77bc1f"/><path d="M477,189.14c-1.78-6.71-3.92-13.46-6.33-20.06l14.08-5.16c2.57,7,4.84,14.2,6.75,21.35Z" style="fill:#77bc1f"/><path d="M197.69,20.82,194.36,6.18a253.56,253.56,0,0,1,111.28,0l-3.33,14.64a238.14,238.14,0,0,0-104.62,0" style="fill:#77bc1f"/><path d="M6.21,305.62a252.32,252.32,0,0,1,0-111.27l14.63,3.33a237.15,237.15,0,0,0,0,104.61Z" style="fill:#77bc1f"/><path d="M493.79,305.62l-14.63-3.33a237.15,237.15,0,0,0,0-104.61l14.63-3.33a252.32,252.32,0,0,1,0,111.27" style="fill:#77bc1f"/><path d="M250,500a251.86,251.86,0,0,1-55.64-6.21l3.33-14.63a238.74,238.74,0,0,0,104.62,0l3.33,14.63A251.73,251.73,0,0,1,250,500" style="fill:#77bc1f"/><path d="M390,265,350,235.9l31.82-37.85-48.9-7.24,10.58-48.32-46.68,16.35-13-47.73L250,147.38l-33.77-36.27L203.2,158.84l-46.63-16.35,10.56,48.32-48.89,7.24,31.81,37.85L110,265l45.82,18.73L134,328.19l49.24-4.77,1.32,49.51,41.34-27.09L250,389.08l24.15-43.24,41.36,27.1,1.27-49.52,49.27,4.77-21.92-44.42Zm-36.61,54.4-43.87-4.26-1.13,44.1-36.84-24.13L250,373.69l-21.51-38.54-36.83,24.14-1.18-44.11-43.84,4.26,19.47-39.57-40.82-16.69,35.65-26-28.34-33.72,43.55-6.46-9.39-43,41.54,14.57,11.61-42.5L250,158.38l30.08-32.3,11.6,42.5L333.28,154l-9.42,43,43.56,6.46-28.36,33.71,35.63,26-40.82,16.69Z" style="fill:#77bc1f"/></svg>