<svg id="Ebene_1" data-name="Ebene 1" xmlns="http://www.w3.org/2000/svg" width="258" height="258" viewBox="0 0 258 258">
  <defs>
    <style>
      .cls-1 {
        fill: none;
        stroke: #77bc1f;
        stroke-miterlimit: 10;
        stroke-width: 7.5px;
      }
    </style>
  </defs>
  <title>122-App</title>
  <circle class="cls-1" cx="129" cy="129" r="125"/>
  <g>
    <rect class="cls-1" x="60.44" y="60.44" width="137.12" height="137.12" rx="17.11"/>
    <path class="cls-1" d="M129,99.35l9.74-10.47,3.76,13.78L156,97.93l-3.06,13.95,14.12,2.1-9.19,10.92,11.55,8.41-13.23,5.41,6.32,12.82-14.22-1.38-.36,14.3L136,156.63l-7,12.49-7-12.49-11.93,7.83-.38-14.3-14.21,1.38,6.31-12.82-13.23-5.41,11.55-8.41L91,114l14.12-2.1-3-13.95,13.46,4.73,3.77-13.78Z"/>
  </g>
</svg>
