<svg id="Ebene_1" data-name="Ebene 1" xmlns="http://www.w3.org/2000/svg" width="258" height="258" viewBox="0 0 258 258">
  <defs>
    <style>
      .cls-1 {
        fill: none;
        stroke: #77bc1f;
        stroke-miterlimit: 10;
        stroke-width: 7.5px;
      }
    </style>
  </defs>
  <title>058-Arbeit-Buero</title>
  <g>
    <rect class="cls-1" x="59.7" y="88.55" width="138.59" height="95.07" rx="10.6" ry="10.6"/>
    <path class="cls-1" d="M110.85,65.23h36.3a11.38,11.38,0,0,1,11.38,11.38V88.55a0,0,0,0,1,0,0H99.47a0,0,0,0,1,0,0V76.61A11.38,11.38,0,0,1,110.85,65.23Z"/>
    <g>
      <path class="cls-1" d="M150,143.9v-7.73a5.66,5.66,0,0,0-5.66-5.66H113.68a5.66,5.66,0,0,0-5.66,5.66v7.72"/>
      <path class="cls-1" d="M150,153.35a5.66,5.66,0,0,1-5.66,5.66H113.68a5.66,5.66,0,0,1-5.66-5.66v-9.46c-19.65-3.12-36.62-10.52-48.32-20.55V175a8.62,8.62,0,0,0,8.62,8.62H189.68A8.62,8.62,0,0,0,198.3,175V123.34c-11.7,10-28.67,17.43-48.32,20.56Z"/>
      <path class="cls-1" d="M108,143.89v9.46a5.66,5.66,0,0,0,5.66,5.66h30.64a5.66,5.66,0,0,0,5.66-5.66V143.9"/>
    </g>
    <circle class="cls-1" cx="129" cy="129" r="125"/>
  </g>
</svg>
