<svg id="Ebene_1" data-name="Ebene 1" xmlns="http://www.w3.org/2000/svg" width="258" height="258" viewBox="0 0 258 258">
  <defs>
    <style>
      .cls-1, .cls-2 {
        fill: none;
        stroke: #77bc1f;
        stroke-miterlimit: 10;
        stroke-width: 7.5px;
      }

      .cls-1 {
        stroke-linecap: round;
      }
    </style>
  </defs>
  <title>034-At-sign</title>
  <g>
    <path class="cls-1" d="M157.1,129c0,15.89-12.58,28.77-28.1,28.77S100.9,144.89,100.9,129s12.58-28.77,28.1-28.77S157.1,113.11,157.1,129Z"/>
    <path class="cls-1" d="M143,186.77a56.93,56.93,0,0,1-14,1.73c-32.1,0-58.12-26.64-58.12-59.5S96.9,69.5,129,69.5s58.12,26.64,58.12,59.5c0,14.4-4.32,29.23-14.49,37.7-13.76,11.47-14-9.7-14-9.7l-1.09-55.84"/>
    <circle class="cls-2" cx="129" cy="129" r="125"/>
  </g>
</svg>
