<svg id="Ebene_1" data-name="Ebene 1" xmlns="http://www.w3.org/2000/svg" width="258" height="258" viewBox="0 0 258 258">
  <defs>
    <style>
      .cls-1, .cls-2, .cls-4 {
        fill: none;
        stroke: #77bc1f;
        stroke-width: 7.5px;
      }

      .cls-1 {
        stroke-linecap: round;
      }

      .cls-1, .cls-2 {
        stroke-linejoin: round;
      }

      .cls-3 {
        fill: #77bc1f;
      }

      .cls-4 {
        stroke-miterlimit: 10;
      }
    </style>
  </defs>
  <title>098-Cardboard-VR-Brille-Smartphone</title>
  <g>
    <g>
      <polygon class="cls-1" points="149.44 188.96 194.25 188.96 194.25 112.7 63.75 112.7 63.75 188.96 108.56 188.96 123.3 168.25 134.7 168.25 149.44 188.96"/>
      <circle class="cls-1" cx="94.98" cy="143.83" r="14.74"/>
      <circle class="cls-1" cx="163.02" cy="143.83" r="14.74"/>
    </g>
    <g>
      <path class="cls-2" d="M73.82,112.7V74.89A5.84,5.84,0,0,1,79.66,69h98.79a5.85,5.85,0,0,1,5.84,5.85V112.7"/>
      <line class="cls-2" x1="171.62" y1="69.04" x2="171.62" y2="112.7"/>
      <line class="cls-2" x1="97.35" y1="69.04" x2="97.35" y2="112.7"/>
      <circle class="cls-3" cx="85.25" cy="96.69" r="4.62" transform="translate(-37.72 58.02) rotate(-31.14)"/>
    </g>
  </g>
  <circle class="cls-4" cx="129" cy="129" r="125"/>
</svg>
