<svg id="Ebene_1" data-name="Ebene 1" xmlns="http://www.w3.org/2000/svg" width="258" height="258" viewBox="0 0 258 258">
  <defs>
    <style>
      .cls-1 {
        fill: none;
        stroke: #77bc1f;
        stroke-miterlimit: 10;
        stroke-width: 7.5px;
      }

      .cls-2 {
        fill: #77bc1f;
      }
    </style>
  </defs>
  <title>044-Datenbank</title>
  <g>
    <path class="cls-1" d="M134.41,68.27c.85.08,1.7.21,2.55.25,12.3.67,24.42,2.31,36.07,6.51a34,34,0,0,1,9.55,4.83,13.38,13.38,0,0,1,1.71,1.57,4,4,0,0,1,0,5.89,22.58,22.58,0,0,1-7.91,5.07,90.43,90.43,0,0,1-23.18,6.21,175.67,175.67,0,0,1-39.95,1.26c-10.36-.82-20.58-2.41-30.41-5.94a36.59,36.59,0,0,1-10.14-5.1,1.59,1.59,0,0,0-.21-.15c-3.6-2.77-3.62-5.81,0-8.59,3.86-3,8.36-4.64,12.94-6.1,10.86-3.44,22-4.9,33.39-5.47.72,0,1.44-.16,2.16-.24Z"/>
    <circle class="cls-1" cx="129" cy="129" r="125"/>
    <path class="cls-1" d="M185.66,103.69V109c0,5.7-.09,11.41,0,17.12a6.55,6.55,0,0,1-2.93,5.71c-3.83,2.87-8.22,4.55-12.71,6a122.71,122.71,0,0,1-26.81,5,174.08,174.08,0,0,1-27.59.27c-11.55-.8-22.94-2.45-33.84-6.54-3.81-1.43-7.56-3-10.54-5.93A5.06,5.06,0,0,1,69.67,127q0-11.22,0-22.44c0-.2.06-.4.1-.77,1.12.61,2.11,1.2,3.14,1.71a84.08,84.08,0,0,0,21.62,7,174.09,174.09,0,0,0,44.53,2.75c11.46-.68,22.8-2.21,33.73-5.88,4-1.35,7.84-3.34,11.75-5C184.86,104.14,185.14,104,185.66,103.69Z"/>
    <path class="cls-1" d="M69.78,147.15c2.21,1.08,4.33,2.22,6.54,3.16A100.75,100.75,0,0,0,100,156.69a171.57,171.57,0,0,0,33.73,2c14.47-.5,28.76-2.29,42.47-7.27,2.78-1,5.4-2.48,8.1-3.75.38-.18.74-.39,1.35-.71v3.25c0,6.35-.09,12.71,0,19.06a6.64,6.64,0,0,1-2.86,5.76c-4,3.06-8.68,4.78-13.43,6.26-10.76,3.33-21.84,4.69-33,5.23a177.72,177.72,0,0,1-28-.81c-9.9-1.08-19.65-2.88-28.89-6.79-3-1.28-6-2.69-8.31-5.14a4.89,4.89,0,0,1-1.48-3.48q0-11.36,0-22.7A2.13,2.13,0,0,1,69.78,147.15Z"/>
    <circle class="cls-2" cx="172.88" cy="122.36" r="5.19"/>
    <circle class="cls-2" cx="172.88" cy="166.03" r="5.19"/>
  </g>
</svg>
