<svg id="Ebene_1" data-name="Ebene 1" xmlns="http://www.w3.org/2000/svg" width="258" height="258" viewBox="0 0 258 258">
  <defs>
    <style>
      .cls-1 {
        fill: none;
        stroke: #77bc1f;
        stroke-miterlimit: 10;
        stroke-width: 7.5px;
      }

      .cls-2 {
        fill: #77bc1f;
      }
    </style>
  </defs>
  <title>042-dns</title>
  <g>
    <polygon class="cls-1" points="129.01 72.34 147.63 52.34 154.82 78.66 180.58 69.64 174.74 96.29 201.71 100.29 184.16 121.17 206.22 137.24 180.94 147.57 193.02 172.07 165.85 169.44 165.15 196.76 142.33 181.81 129.01 205.66 115.69 181.81 92.89 196.76 92.15 169.44 65 172.07 77.06 147.57 51.78 137.24 73.86 121.17 56.31 100.29 83.28 96.29 77.46 69.64 103.18 78.66 110.38 52.34 129.01 72.34"/>
    <g>
      <path class="cls-2" d="M112.65,129.32a22.74,22.74,0,0,1-.83,6.29,16.75,16.75,0,0,1-2.49,5.15,12.71,12.71,0,0,1-3.61,3.3,10.09,10.09,0,0,1-4.42,1.45c-.63.06-1.33.11-2.11.14s-1.65,0-2.63,0h-8v-33h6.64c.95,0,2,0,3.09,0s2,.08,2.65.15a12.27,12.27,0,0,1,3.92,1,10.77,10.77,0,0,1,3.3,2.3,14.24,14.24,0,0,1,3.39,5.48A23.29,23.29,0,0,1,112.65,129.32Zm-7.45.62a38,38,0,0,0-.33-5.25,10.9,10.9,0,0,0-1.33-4,5.48,5.48,0,0,0-2-2.06,6.48,6.48,0,0,0-3.21-.69h-3v22.36h3.56a5.22,5.22,0,0,0,4.81-2.54Q105.2,135.2,105.2,129.94Z"/>
      <path class="cls-2" d="M134.34,145.7l-5.65-12.63c-.47-1-.94-2.1-1.4-3.16s-.89-2.07-1.3-3-.78-1.85-1.09-2.64-.51-1.36-.67-1.8c.06.6.11,1.28.14,2s.07,1.6.1,2.42,0,1.64.07,2.44,0,1.56,0,2.26l.19,14.1h-6.4v-33h7.35L132,125.9c.82,1.77,1.54,3.48,2.16,5.11s1.09,3,1.44,4.24c-.06-.63-.12-1.35-.19-2.16s-.12-1.63-.16-2.46-.09-1.65-.12-2.42-.05-1.45-.05-2L135,112.71h6.31v33Z"/>
      <path class="cls-2" d="M171.36,135.3a10.44,10.44,0,0,1-1,4.56,10.29,10.29,0,0,1-2.75,3.51,12.47,12.47,0,0,1-4.3,2.25,18.53,18.53,0,0,1-5.6.79,22.11,22.11,0,0,1-5.79-.79,23,23,0,0,1-5.46-2.2l2.47-5.18a28.68,28.68,0,0,0,4.44,1.95,14.5,14.5,0,0,0,4.63.71q5.79,0,5.79-4.51,0-3.09-4.32-4.27l-3.66-1a14.34,14.34,0,0,1-4-1.66,7.41,7.41,0,0,1-2.47-2.51,9.4,9.4,0,0,1-1.38-5,9.91,9.91,0,0,1,.86-4.15,9.34,9.34,0,0,1,2.42-3.23,11,11,0,0,1,3.75-2.08,14.9,14.9,0,0,1,4.79-.74,20.14,20.14,0,0,1,5.93.88,17.36,17.36,0,0,1,5.08,2.44l-3.13,4.75a19.57,19.57,0,0,0-4.06-2,11.77,11.77,0,0,0-3.63-.57,5,5,0,0,0-3.32,1.07,3.37,3.37,0,0,0-1.28,2.73,2.65,2.65,0,0,0,.78,2,7.07,7.07,0,0,0,2.87,1.3l4,1.09a12,12,0,0,1,6.22,3.61A9.3,9.3,0,0,1,171.36,135.3Z"/>
    </g>
    <circle class="cls-1" cx="129" cy="129" r="125"/>
  </g>
</svg>
