<svg id="Ebene_1" data-name="Ebene 1" xmlns="http://www.w3.org/2000/svg" width="258" height="258" viewBox="0 0 258 258">
  <defs>
    <style>
      .cls-1 {
        fill: none;
        stroke: #77bc1f;
        stroke-miterlimit: 10;
        stroke-width: 7.5px;
      }

      .cls-2 {
        fill: #77bc1f;
      }
    </style>
  </defs>
  <title>043-dsl</title>
  <g>
    <path class="cls-1" d="M129,72.34l18.62-20,7.19,26.32,25.76-9-5.84,26.65,27,4-17.55,20.88,22.06,16.07-25.28,10.33L193,172.08l-27.17-2.64-.7,27.32-22.82-14.95L129,205.66l-13.32-23.85-22.8,14.95-.74-27.32L65,172.08l12.06-24.51L51.78,137.24l22.08-16.07L56.31,100.29l27-4L77.46,69.64l25.72,9,7.2-26.32Z"/>
    <circle class="cls-1" cx="129" cy="129" r="125"/>
    <path class="cls-2" d="M115.4,121.65a14.24,14.24,0,0,0-3.39-5.48,11,11,0,0,0-3.3-2.3,12.33,12.33,0,0,0-3.92-1c-.66-.07-1.55-.11-2.66-.15s-2.13,0-3.08,0H92.4v33h8c1,0,1.85,0,2.63,0s1.48-.08,2.11-.15a10,10,0,0,0,4.42-1.44,12.54,12.54,0,0,0,3.6-3.3,16.55,16.55,0,0,0,2.5-5.15,22.74,22.74,0,0,0,.83-6.29A23.55,23.55,0,0,0,115.4,121.65Zm-7.88,16.1a5.24,5.24,0,0,1-4.82,2.54H99.14V117.93h3a6.48,6.48,0,0,1,3.21.69,5.53,5.53,0,0,1,2,2.06,10.54,10.54,0,0,1,1.33,4,38,38,0,0,1,.33,5.25Q109.06,135.2,107.52,137.75Z"/>
    <path class="cls-2" d="M145.18,135.3a10.44,10.44,0,0,1-1,4.56,10.17,10.17,0,0,1-2.75,3.51,12.47,12.47,0,0,1-4.3,2.25,18.48,18.48,0,0,1-5.6.79,22.11,22.11,0,0,1-5.79-.79,23,23,0,0,1-5.46-2.2l2.47-5.18a29.67,29.67,0,0,0,4.44,1.95,14.55,14.55,0,0,0,4.63.71q5.79,0,5.79-4.51,0-3.09-4.32-4.27l-3.66-1a14.34,14.34,0,0,1-4-1.66,7.5,7.5,0,0,1-2.47-2.51,9.39,9.39,0,0,1-1.37-5,9.91,9.91,0,0,1,.85-4.15,9.47,9.47,0,0,1,2.42-3.23,11,11,0,0,1,3.75-2.08,14.9,14.9,0,0,1,4.79-.74,20.2,20.2,0,0,1,5.94.88,17.23,17.23,0,0,1,5.08,2.44l-3.14,4.75a19.77,19.77,0,0,0-4-2,11.88,11.88,0,0,0-3.64-.57,5,5,0,0,0-3.32,1.07,3.4,3.4,0,0,0-1.28,2.73,2.65,2.65,0,0,0,.78,2,7.07,7.07,0,0,0,2.87,1.3l4,1.09a12,12,0,0,1,6.22,3.61A9.3,9.3,0,0,1,145.18,135.3Z"/>
    <polygon class="cls-2" points="167.83 145.7 150.41 145.7 150.41 112.71 157.19 112.71 157.19 140.19 169.01 140.19 167.83 145.7"/>
  </g>
</svg>
