<svg id="Ebene_1" data-name="Ebene 1" xmlns="http://www.w3.org/2000/svg" width="258" height="258" viewBox="0 0 258 258">
  <defs>
    <style>
      .cls-1, .cls-2 {
        fill: none;
        stroke: #77bc1f;
        stroke-width: 7.5px;
      }

      .cls-1 {
        stroke-linecap: round;
        stroke-linejoin: round;
      }

      .cls-2 {
        stroke-miterlimit: 10;
      }
    </style>
  </defs>
  <title>027-Einstellungen-Verwaltung</title>
  <g>
    <g id="MsH92u.tif">
      <path class="cls-1" d="M129.09,105.69a27.53,27.53,0,1,0,27.44,27.77A27.6,27.6,0,0,0,129.09,105.69Zm10.46-46.43,4.71,14.51a1.55,1.55,0,0,0,.91,1l13.74,5.7a1.61,1.61,0,0,0,1.34,0l13.59-6.93a1.58,1.58,0,0,1,1.85.29l12.78,12.78a1.59,1.59,0,0,1,.29,1.84L181.83,102a1.62,1.62,0,0,0-.06,1.33l5.7,13.75a1.59,1.59,0,0,0,1,.9L203,122.67a1.6,1.6,0,0,1,1.1,1.52v18.07a1.58,1.58,0,0,1-1.1,1.51l-14.51,4.71a1.63,1.63,0,0,0-1,.91l-5.7,13.75a1.63,1.63,0,0,0,.06,1.33l6.93,13.59a1.61,1.61,0,0,1-.29,1.85l-12.78,12.78a1.6,1.6,0,0,1-1.85.29l-13.59-6.93a1.61,1.61,0,0,0-1.34-.05l-13.74,5.69a1.6,1.6,0,0,0-.91,1l-4.71,14.51a1.59,1.59,0,0,1-1.52,1.1H120a1.59,1.59,0,0,1-1.52-1.1l-4.71-14.51a1.6,1.6,0,0,0-.91-1L99.09,186a1.61,1.61,0,0,0-1.34.05L84.16,193a1.6,1.6,0,0,1-1.85-.29L69.54,179.91a1.6,1.6,0,0,1-.3-1.85l6.93-13.59a1.63,1.63,0,0,0,.06-1.33l-5.7-13.75a1.63,1.63,0,0,0-1-.91L55,143.77a1.58,1.58,0,0,1-1.1-1.51V123.85a1.12,1.12,0,0,1,.78-1.07L69.55,118a1.59,1.59,0,0,0,1-.9l5.7-13.75a1.62,1.62,0,0,0-.06-1.33l-6.93-13.6a1.58,1.58,0,0,1,.3-1.84L82.31,73.76a1.58,1.58,0,0,1,1.85-.29L97.75,80.4a1.61,1.61,0,0,0,1.34,0l13.74-5.7a1.55,1.55,0,0,0,.91-1l4.71-14.51a1.6,1.6,0,0,1,1.52-1.1H138A1.6,1.6,0,0,1,139.55,59.26Z"/>
    </g>
    <circle class="cls-2" cx="129" cy="129" r="125"/>
  </g>
</svg>
