<svg id="Ebene_1" data-name="Ebene 1" xmlns="http://www.w3.org/2000/svg" width="258" height="258" viewBox="0 0 258 258">
  <defs>
    <style>
      .cls-1, .cls-2 {
        fill: none;
        stroke: #77bc1f;
      }

      .cls-1 {
        stroke-miterlimit: 10;
        stroke-width: 7.5px;
      }

      .cls-2 {
        stroke-linecap: round;
        stroke-linejoin: round;
        stroke-width: 8.27px;
      }
    </style>
  </defs>
  <title>109-Fabrik</title>
  <g>
    <circle class="cls-1" cx="129" cy="129" r="125"/>
    <g>
      <polygon class="cls-2" points="163.51 148.78 163.51 123.52 122.87 148.78 122.87 123.52 82.22 148.78 82.22 93.18 56.03 93.18 56.03 148.78 56.03 160.27 56.03 202.52 204.16 202.52 204.16 148.78 204.16 123.52 163.51 148.78"/>
      <path class="cls-2" d="M109.71,77.5H56.89S49.21,64.18,58.2,58.36c7.41-4.8,25.36-3.86,28.05,4.74,4.1-7.7,19.17-5.37,21.5,3.34,6.15-4.7,20-4.41,20,5.18C127.72,78.24,109.71,77.5,109.71,77.5Z"/>
      <rect class="cls-2" x="82.71" y="164.7" width="14.69" height="14.69"/>
      <rect class="cls-2" x="113.03" y="164.7" width="14.69" height="14.69"/>
      <rect class="cls-2" x="143.36" y="164.7" width="14.69" height="14.69"/>
      <rect class="cls-2" x="173.69" y="164.7" width="14.69" height="14.69"/>
    </g>
  </g>
</svg>
