<svg id="Ebene_1" data-name="Ebene 1" xmlns="http://www.w3.org/2000/svg" width="258" height="258" viewBox="0 0 258 258">
  <defs>
    <style>
      .cls-1, .cls-2 {
        fill: none;
        stroke: #77bc1f;
        stroke-width: 7.5px;
      }

      .cls-1 {
        stroke-miterlimit: 10;
      }

      .cls-2 {
        stroke-linecap: round;
        stroke-linejoin: round;
      }
    </style>
  </defs>
  <title>081-Gefahren-warnung</title>
  <g>
    <circle class="cls-1" cx="129" cy="129" r="125"/>
    <g>
      <path class="cls-2" d="M87.06,200.14c9.08-15.54,18.11-31,27.23-46.59a30.92,30.92,0,0,0,14.45,3.36,30.28,30.28,0,0,0,14.58-3.38q13.56,23.26,27.1,46.5C150.58,215.46,112.73,217.91,87.06,200.14Z"/>
      <path class="cls-2" d="M87.5,57.19l26.73,46.88A30.7,30.7,0,0,0,104.1,114.9a30.21,30.21,0,0,0-4.37,14.32l-53.82.22C42.47,104.54,59.28,70.53,87.5,57.19Z"/>
      <path class="cls-2" d="M212.44,129.84l-54-.29a30.76,30.76,0,0,0-4.32-14.19,30,30,0,0,0-10.22-10.94L170.66,57.7C194,67.17,215,98.72,212.44,129.84Z"/>
      <path class="cls-2" d="M141.45,129.55a12.45,12.45,0,0,1-12.36,12.55,12.52,12.52,0,0,1-.06-25A12.43,12.43,0,0,1,141.45,129.55Z"/>
    </g>
  </g>
</svg>
