<svg id="Ebene_1" data-name="Ebene 1" xmlns="http://www.w3.org/2000/svg" width="258" height="258" viewBox="0 0 258 258">
  <defs>
    <style>
      .cls-1, .cls-2, .cls-3 {
        fill: none;
        stroke: #77bc1f;
        stroke-width: 7.5px;
      }

      .cls-1, .cls-2 {
        stroke-miterlimit: 10;
      }

      .cls-2, .cls-3 {
        stroke-linecap: round;
      }

      .cls-3 {
        stroke-linejoin: round;
      }
    </style>
  </defs>
  <title>147-GenericAutomation</title>
  <g>
    <circle class="cls-1" cx="129" cy="129" r="125"/>
    <g>
      <path class="cls-2" d="M57,166.84a81.35,81.35,0,0,0,151.62-21.1"/>
      <path class="cls-2" d="M201,91.16a81.35,81.35,0,0,0-151.62,21.1"/>
      <polyline class="cls-3" points="68.23 102.07 49.05 112.15 38.97 92.97"/>
      <polyline class="cls-3" points="189.77 155.93 208.95 145.85 219.03 165.03"/>
    </g>
    <g id="MsH92u.tif">
      <path class="cls-3" d="M129.06,112.24a16.76,16.76,0,1,0,16.7,16.91A16.79,16.79,0,0,0,129.06,112.24ZM135.42,84l2.87,8.83a1,1,0,0,0,.55.6l8.37,3.47a1,1,0,0,0,.81,0l8.28-4.22a1,1,0,0,1,1.13.18l7.78,7.78a1,1,0,0,1,.18,1.13L161.17,110a1,1,0,0,0,0,.81l3.47,8.37a1,1,0,0,0,.6.55l8.83,2.87a1,1,0,0,1,.67.92v11a1,1,0,0,1-.67.92l-8.83,2.87a1,1,0,0,0-.6.55l-3.47,8.37a1,1,0,0,0,0,.81l4.22,8.28a1,1,0,0,1-.18,1.13l-7.78,7.78a1,1,0,0,1-1.13.18L148,161.17a1,1,0,0,0-.81,0l-8.37,3.47a1,1,0,0,0-.55.6L135.42,174a1,1,0,0,1-.92.67h-11a1,1,0,0,1-.92-.67l-2.87-8.83a1,1,0,0,0-.55-.6l-8.37-3.47a1,1,0,0,0-.81,0l-8.28,4.22a1,1,0,0,1-1.13-.18l-7.78-7.78a1,1,0,0,1-.18-1.13L96.83,148a1,1,0,0,0,0-.81l-3.47-8.37a1,1,0,0,0-.6-.55L84,135.42a1,1,0,0,1-.67-.92V123.29a.69.69,0,0,1,.47-.65l9-2.93a1,1,0,0,0,.6-.55l3.47-8.37a1,1,0,0,0,0-.81l-4.22-8.28a1,1,0,0,1,.18-1.13l7.78-7.78a1,1,0,0,1,1.13-.18L110,96.83a1,1,0,0,0,.81,0l8.37-3.47a1,1,0,0,0,.55-.6L122.58,84a1,1,0,0,1,.92-.67h11A1,1,0,0,1,135.42,84Z"/>
    </g>
  </g>
</svg>
