<svg id="Ebene_1" data-name="Ebene 1" xmlns="http://www.w3.org/2000/svg" width="258" height="258" viewBox="0 0 258 258">
  <defs>
    <style>
      .cls-1, .cls-2 {
        fill: none;
        stroke: #77bc1f;
        stroke-width: 7.5px;
      }

      .cls-1 {
        stroke-miterlimit: 10;
      }

      .cls-2 {
        stroke-linecap: round;
        stroke-linejoin: round;
      }
    </style>
  </defs>
  <title>083-Idee</title>
  <g>
    <g>
      <path class="cls-1" d="M178.06,111.2A49.06,49.06,0,1,0,95.53,147a35.06,35.06,0,0,1,10.75,25.69V197a6.64,6.64,0,0,0,6.64,6.64h32.16c3.67,0,6.64-5.6,6.64-9.27V172.65a36.7,36.7,0,0,1,11.44-26.27A48.87,48.87,0,0,0,178.06,111.2Z"/>
      <line class="cls-1" x1="106.28" y1="194.33" x2="151.72" y2="184.18"/>
      <line class="cls-1" x1="106.28" y1="178.59" x2="151.79" y2="168.39"/>
      <path class="cls-2" d="M120.22,147.39l-12.06-24.47s8.58-11.52,20.1,0,21.58.38,21.58.38l-12.06,24.47"/>
    </g>
    <circle class="cls-1" cx="129" cy="129" r="125"/>
  </g>
</svg>
