<svg id="Ebene_1" data-name="Ebene 1" xmlns="http://www.w3.org/2000/svg" width="258" height="258" viewBox="0 0 258 258">
  <defs>
    <style>
      .cls-1, .cls-2, .cls-3 {
        fill: none;
        stroke: #77bc1f;
        stroke-width: 7.5px;
      }

      .cls-1, .cls-3 {
        stroke-miterlimit: 10;
      }

      .cls-2, .cls-3 {
        stroke-linecap: round;
      }

      .cls-2 {
        stroke-linejoin: round;
      }
    </style>
  </defs>
  <title>128-Interdisziplinaer</title>
  <g>
    <circle class="cls-1" cx="129" cy="129" r="125"/>
    <g>
      <g>
        <g>
          <path class="cls-1" d="M169.73,123.38a40.74,40.74,0,1,0-68.52,29.74,29.13,29.13,0,0,1,8.93,21.34v23.65a5.51,5.51,0,0,0,5.51,5.51h26.8c3,0,5.51-4.65,5.51-7.69l-.1-21.54a30.48,30.48,0,0,1,9.5-21.81A40.52,40.52,0,0,0,169.73,123.38Z"/>
          <line class="cls-1" x1="110.14" y1="193.58" x2="147.86" y2="185.14"/>
          <line class="cls-1" x1="110.14" y1="179.32" x2="147.92" y2="170.86"/>
          <path class="cls-2" d="M121.71,153.42l-10-20.31s7.12-9.57,16.69,0,17.91.31,17.91.31l-10,20.32"/>
        </g>
        <g>
          <path class="cls-1" d="M162.69,165.76a19.83,19.83,0,0,1,6.08,14.53V194a3.76,3.76,0,0,0,3.76,3.76h18.19c2.07,0,3.75-3.17,3.75-5.24V180.25a20.77,20.77,0,0,1,6.47-14.86,27.73,27.73,0,0,0-19.32-47.65,28.44,28.44,0,0,0-3.17.17"/>
          <line class="cls-1" x1="168.77" y1="187.32" x2="194.47" y2="181.57"/>
          <path class="cls-2" d="M176.65,166,171,153.3s3.67-7.7,10.19-1.18,12.21.21,12.21.21l-6.82,13.84"/>
        </g>
        <g>
          <path class="cls-1" d="M76.4,117.74a28.84,28.84,0,0,0-3.2.17,27.74,27.74,0,0,0-15.76,47.85,19.8,19.8,0,0,1,6.09,14.53V194a3.76,3.76,0,0,0,3.75,3.76H85.47c2.08,0,3.76-3.17,3.76-5.24V180.25a20.77,20.77,0,0,1,6.47-14.86"/>
          <line class="cls-1" x1="63.53" y1="187.32" x2="89.23" y2="181.57"/>
          <path class="cls-2" d="M71.41,166l-6.82-13.84s4.85-6.52,11.37,0,11,1.39,11,1.39l-5.64,12.66"/>
        </g>
      </g>
      <g>
        <line class="cls-3" x1="128.94" y1="61.07" x2="128.94" y2="41.67"/>
        <line class="cls-3" x1="90.15" y1="50.37" x2="100.78" y2="65.98"/>
        <line class="cls-3" x1="62.92" y1="71.16" x2="81.63" y2="84.75"/>
        <line class="cls-3" x1="167.75" y1="50.37" x2="157.12" y2="65.99"/>
        <line class="cls-3" x1="196.4" y1="71.16" x2="179.11" y2="84.77"/>
      </g>
    </g>
  </g>
</svg>
