<svg id="Ebene_1" data-name="Ebene 1" xmlns="http://www.w3.org/2000/svg" width="258" height="258" viewBox="0 0 258 258">
  <defs>
    <style>
      .cls-1 {
        fill: none;
        stroke: #77bc1f;
        stroke-miterlimit: 10;
        stroke-width: 7.5px;
      }

      .cls-2 {
        fill: #77bc1f;
      }
    </style>
  </defs>
  <title>041-ip</title>
  <g>
    <path class="cls-1" d="M254,129A125,125,0,1,1,129,4,125,125,0,0,1,254,129Z"/>
    <path class="cls-1" d="M129,72.34l18.62-20,7.19,26.32,25.76-9-5.84,26.65,27,4-17.55,20.88,22.06,16.07-25.28,10.33L193,172.08l-27.17-2.64-.7,27.32-22.82-14.95L129,205.66l-13.32-23.85-22.8,14.95-.74-27.32L65,172.08l12.06-24.51L51.78,137.24l22.08-16.07L56.31,100.29l27-4L77.46,69.64l25.72,9,7.2-26.32Z"/>
    <rect class="cls-2" x="111.87" y="112.71" width="6.93" height="32.99"/>
    <path class="cls-2" d="M147.3,117.81a8.75,8.75,0,0,0-3.54-3.49c-.47-.25-.95-.48-1.42-.69a9.43,9.43,0,0,0-1.73-.52,18,18,0,0,0-2.47-.31c-1-.06-2.14-.09-3.54-.09h-8.68v33h6.64V133.54h3.66c.91,0,1.71,0,2.37-.07a14.38,14.38,0,0,0,1.73-.21c.49-.1.94-.21,1.33-.33a8.34,8.34,0,0,0,1.16-.48,9.51,9.51,0,0,0,4.21-3.79,11.2,11.2,0,0,0,1.49-5.8A10.31,10.31,0,0,0,147.3,117.81ZM141.06,125a4.62,4.62,0,0,1-.62,1.44,4.18,4.18,0,0,1-.69.86,2.59,2.59,0,0,1-.85.52,4.67,4.67,0,0,1-1.19.26,16.06,16.06,0,0,1-1.68.07h-3.47V118.07h4.23a4.21,4.21,0,0,1,3.3,1.31,5.29,5.29,0,0,1,1.16,3.63A9,9,0,0,1,141.06,125Z"/>
  </g>
</svg>
