<svg id="Ebene_1" data-name="Ebene 1" xmlns="http://www.w3.org/2000/svg" width="258" height="258" viewBox="0 0 258 258">
  <defs>
    <style>
      .cls-1 {
        fill: none;
        stroke: #77bc1f;
        stroke-miterlimit: 10;
        stroke-width: 7.5px;
      }
    </style>
  </defs>
  <title>012-Kontakt-Telefon-Telekommunikation</title>
  <g>
    <g id="z40AuA.tif">
      <path class="cls-1" d="M194.31,170.6c-1,4.28-4,7.36-6.71,10.49-2.92,3.3-6.13,6.35-9.25,9.47-3.4,3.42-7.47,4.25-12.18,3.43a67.53,67.53,0,0,1-21-7.73c-10.83-5.95-20.49-13.5-29.64-21.74a254.05,254.05,0,0,1-33.57-36.05c-6.35-8.45-12-17.32-15.45-27.4-1.15-3.39-1.71-7-2.54-10.49l-.24-1.1V86.17a15,15,0,0,1,3.87-6.62c3.18-3.23,6.36-6.48,9.76-9.48,3-2.64,6-5.45,10.1-6.35h2.8c2.93.6,4.69,2.55,6.25,5Q104.12,80.51,112,92.17a8.8,8.8,0,0,1,.74,9.28c-2,4.24-4.39,8.33-6.73,12.42a2.1,2.1,0,0,0,.21,2.76A203.72,203.72,0,0,0,141.7,152a1.62,1.62,0,0,0,2.11.15c4.18-2.34,8.34-4.75,12.64-6.84a8.94,8.94,0,0,1,9.51.76q11.64,7.92,23.48,15.55c2.37,1.54,4.28,3.29,4.87,6.17Z"/>
    </g>
    <circle class="cls-1" cx="129" cy="129" r="125"/>
  </g>
</svg>
