<svg id="Ebene_1" data-name="Ebene 1" xmlns="http://www.w3.org/2000/svg" width="258" height="258" viewBox="0 0 258 258">
  <defs>
    <style>
      .cls-1 {
        fill: none;
        stroke: #77bc1f;
        stroke-miterlimit: 10;
        stroke-width: 7.5px;
      }
    </style>
  </defs>
  <title>008-Kunde</title>
  <g>
    <path class="cls-1" d="M185.14,184.22v-9.59a14.58,14.58,0,0,0-6.27-12,63.55,63.55,0,0,0-21.8-9.54c-18.84-4.43-13.7-12.59-11.16-17,6.36-11,11.75-8.5,13.37-31.39C161.49,73.65,140.15,66,129,66S96.51,73.65,98.72,104.7c1.62,22.89,5.17,20.43,13.37,31.39,3,4.07,7.68,12.56-11.16,17a63.82,63.82,0,0,0-21.6,9.39,15.06,15.06,0,0,0-6.47,12.41v9.34Z"/>
    <circle class="cls-1" cx="129" cy="129" r="125"/>
  </g>
</svg>
