<svg id="Ebene_1" data-name="Ebene 1" xmlns="http://www.w3.org/2000/svg" width="258" height="258" viewBox="0 0 258 258">
  <defs>
    <style>
      .cls-1 {
        fill: none;
        stroke: #77bc1f;
        stroke-miterlimit: 10;
        stroke-width: 7.5px;
      }
    </style>
  </defs>
  <title>007-Kunden</title>
  <g>
    <path class="cls-1" d="M112.6,182.59h-63v-9.37a15.05,15.05,0,0,1,6.49-12.43,63.83,63.83,0,0,1,21.65-9.42c18.88-4.44,14.23-13,11.18-17-8.22-11-11.78-8.52-13.4-31.47C73.33,71.74,94.72,64.11,105.9,64.11s32.57,7.63,30.36,38.76c-1.63,22.95-7,20.48-13.41,31.47-2.55,4.41-7.7,12.59,11.19,17"/>
    <path class="cls-1" d="M167.69,186.15h40.69v-7a10.58,10.58,0,0,0-4.54-8.7,46,46,0,0,0-15.8-6.91c-13.66-3.22-9.94-9.13-8.09-12.32,4.61-7.94,8.51-6.16,9.69-22.75,1.6-22.51-13.87-28-21.95-28s-23.55,5.52-21.95,28c1.17,16.59,3.74,14.81,9.69,22.75,2.2,3,5.57,9.1-8.09,12.32a46.19,46.19,0,0,0-15.65,6.8,10.9,10.9,0,0,0-4.69,9v6.77Z"/>
    <path class="cls-1" d="M254,129A125,125,0,1,1,129,4,125,125,0,0,1,254,129Z"/>
  </g>
</svg>
