<svg id="Ebene_1" data-name="Ebene 1" xmlns="http://www.w3.org/2000/svg" width="258" height="258" viewBox="0 0 258 258">
  <defs>
    <style>
      .cls-1, .cls-2 {
        fill: none;
        stroke: #77bc1f;
        stroke-miterlimit: 10;
        stroke-width: 7.5px;
      }

      .cls-2 {
        stroke-linecap: round;
      }
    </style>
  </defs>
  <title>091-like</title>
  <g>
    <circle class="cls-1" cx="129" cy="129" r="125"/>
    <g>
      <path class="cls-2" d="M124.44,184.31a22.64,22.64,0,0,1-13.36-4.91,8.1,8.1,0,0,0-1.88-1.26l-3.44-1.56V125.11l6.14-5.25,17.61-32.64.05-.09a11,11,0,0,0,1.26-3,11.2,11.2,0,0,0,.27-3.37l-1.57-20.59a.9.9,0,0,1,.45-.84l1.71-1a12.23,12.23,0,0,1,6-1.61c10.34,0,18.36,14.23,18.36,26.48a30.82,30.82,0,0,1-.37,4.79l-2.4,15.57h34.17a13.56,13.56,0,0,1,9.56,4,12.46,12.46,0,0,1,3.73,8.9,12.71,12.71,0,0,1-4,9.2,12.83,12.83,0,0,1-2.42,22.18,12.81,12.81,0,0,1-7.59,18.95,13.09,13.09,0,0,1,.62,7.41,12.71,12.71,0,0,1-11.73,10.08h-.13l-51,0Z"/>
      <rect class="cls-2" x="63.51" y="115.89" width="42.28" height="72.36" rx="4.17" ry="4.17"/>
    </g>
  </g>
</svg>
