<svg id="Ebene_1" data-name="Ebene 1" xmlns="http://www.w3.org/2000/svg" width="258" height="258" viewBox="0 0 258 258">
  <defs>
    <style>
      .cls-1, .cls-2 {
        fill: none;
        stroke: #77bc1f;
        stroke-miterlimit: 10;
      }

      .cls-1 {
        stroke-width: 7.5px;
      }

      .cls-2 {
        stroke-width: 7.5px;
      }
    </style>
  </defs>
  <title>102-Musik</title>
  <g>
    <circle class="cls-1" cx="129" cy="129" r="125"/>
    <path class="cls-2" d="M102.59,83c-5.28,1-4.25,4.53-4.25,13.3v55c-15.68-5.27-32.26,5.54-32.22,20.07,0,8.64,10.54,15.82,19.12,16,15.36.36,28.63-9.49,28.8-21.94-.17-20.92,0-41.84,0-62.76,3.82-.6,46.43-7.44,50-8.05l-.14,47.8c-13.48-4.5-30.54,4-33.57,16.42-1.28,6.94,2.19,15.46,9.48,18.4,16.41,6.64,38.31-5.4,37.81-21.49-.22-27.89.18-51.68,0-79.57.05-3.49-1.95-6.87-10.12-5.37Z"/>
  </g>
</svg>
