<svg id="Ebene_1" data-name="Ebene 1" xmlns="http://www.w3.org/2000/svg" width="258" height="258" viewBox="0 0 258 258">
  <defs>
    <style>
      .cls-1 {
        fill: none;
        stroke: #77bc1f;
        stroke-miterlimit: 10;
        stroke-width: 7.5px;
      }
    </style>
  </defs>
  <title>064-Oeffentlicher-Nahverkehr</title>
  <g>
    <circle class="cls-1" cx="129" cy="129" r="125"/>
    <g>
      <path class="cls-1" d="M184.12,131.3v50.25H73.88V131.3L81.49,83A20.47,20.47,0,0,1,101.71,65.7H156.3A20.46,20.46,0,0,1,176.51,83Z"/>
      <path class="cls-1" d="M73.88,131.3H184.12"/>
      <path class="cls-1" d="M112.28,158.08A10.13,10.13,0,1,1,102.16,148,10.13,10.13,0,0,1,112.28,158.08Z"/>
      <path class="cls-1" d="M80.46,93.63h97.08"/>
      <path class="cls-1" d="M110.48,79.85h37"/>
      <path class="cls-1" d="M166,158.08A10.13,10.13,0,1,1,155.84,148,10.13,10.13,0,0,1,166,158.08Z"/>
      <path class="cls-1" d="M93.2,200.2h0a9,9,0,0,1-9-8.95v-9.7h17.91v9.7A9,9,0,0,1,93.2,200.2Z"/>
      <path class="cls-1" d="M164.8,200.2h0a9,9,0,0,1-9-8.95v-9.7h17.91v9.7A9,9,0,0,1,164.8,200.2Z"/>
    </g>
  </g>
</svg>
