<svg id="Ebene_1" data-name="Ebene 1" xmlns="http://www.w3.org/2000/svg" width="258" height="258" viewBox="0 0 258 258">
  <defs>
    <style>
      .cls-1 {
        fill: none;
        stroke: #77bc1f;
        stroke-miterlimit: 10;
        stroke-width: 7.5px;
      }
    </style>
  </defs>
  <title>112-Paket</title>
  <path class="cls-1" d="M254,129A125,125,0,1,1,129,4,125,125,0,0,1,254,129ZM137.9,77.32l4.33,23.52v34.37h-26V100.84l4.34-23.52M65.39,101.88,90.9,79.05a6.9,6.9,0,0,1,4.56-1.73h67.08a6.88,6.88,0,0,1,4.34,1.73l26,23.13M142,100.84h47.12a6.38,6.38,0,0,1,6.38,6.38V174.3a6.38,6.38,0,0,1-6.38,6.38H68.86a6.38,6.38,0,0,1-6.38-6.38v-67a6.38,6.38,0,0,1,6.29-6.46H116"/>
</svg>
