<svg id="Ebene_1" data-name="Ebene 1" xmlns="http://www.w3.org/2000/svg" width="258" height="258" viewBox="0 0 258 258">
  <defs>
    <style>
      .cls-1 {
        fill: none;
        stroke: #77bc1f;
        stroke-miterlimit: 10;
        stroke-width: 7.5px;
      }
    </style>
  </defs>
  <title>062-Parkplatz</title>
  <g>
    <path class="cls-1" d="M182,124a32.77,32.77,0,0,1-7.51,13.85Q169,144,159,148.13t-25.69,4.09H123v46.12H89.49V68.7h42.22a103.75,103.75,0,0,1,22,2.14,43.71,43.71,0,0,1,16.46,7,31.33,31.33,0,0,1,10.23,12.46Q184,97.9,184,109.07A60,60,0,0,1,182,124Z"/>
    <path class="cls-1" d="M144,98.15a16.93,16.93,0,0,0-9.6-2.48H123v30.51h9.6a29.7,29.7,0,0,0,6.74-.67,9.3,9.3,0,0,0,4.7-2.57,11.83,11.83,0,0,0,2.77-5.24,34.16,34.16,0,0,0,.93-8.87C147.71,103.36,146.47,99.81,144,98.15Z"/>
    <path class="cls-1" d="M254,129A125,125,0,1,1,129,4,125,125,0,0,1,254,129Z"/>
  </g>
</svg>
