<svg id="Ebene_1" data-name="Ebene 1" xmlns="http://www.w3.org/2000/svg" width="258" height="258" viewBox="0 0 258 258">
  <defs>
    <style>
      .cls-1 {
        fill: none;
        stroke: #77bc1f;
        stroke-miterlimit: 10;
        stroke-width: 7.5px;
      }

      .cls-2 {
        fill: #77bc1f;
      }
    </style>
  </defs>
  <title>107-PDF</title>
  <g>
    <circle class="cls-1" cx="129" cy="129" r="125"/>
    <g>
      <g>
        <polyline class="cls-1" points="117.98 58.58 117.98 95.3 74.97 95.3"/>
        <polygon class="cls-1" points="183.03 199.42 74.97 199.42 74.97 95.3 117.98 58.58 183.03 58.58 183.03 199.42"/>
      </g>
      <path class="cls-2" d="M150,149a63.23,63.23,0,0,0-7.12.39,41.83,41.83,0,0,1-4.81-3.2c-3.48-2.87-6.63-7.9-8.84-14.14.06-.16.12-.44.23-.77,1.82-7.35,3.52-16.24-.12-19.88a4.76,4.76,0,0,0-3.37-1.34h-1.33c-2,0-3.86,2.16-4.36,4.26-2,7.34-.84,11.37,1.2,18v.07a92.85,92.85,0,0,1-6,16.17c-1.88,3.7-3.65,7.07-5.31,9.94a32.64,32.64,0,0,0-4.91,2.7c-6.62,4.15-9.78,8.8-10.39,11.72a5,5,0,0,0,.28,3l.18.28L98,178a5,5,0,0,0,2.44.61c4.47,0,9.55-5.25,16.4-17,.38-.16.71-.26,1-.37,5.69-1.82,12.75-3.11,22.25-4.16a40.38,40.38,0,0,0,16.59,4.09c2.43,0,4.07-.59,5-1.64a5.32,5.32,0,0,0,1.53-3.65,4.37,4.37,0,0,0-.66-3C160.94,150.25,156.8,149,150,149ZM99.42,174.71c.27-2.1,2.75-5.74,6.67-9.33a23.11,23.11,0,0,1,2.65-1.71C105.15,170.24,101.9,173.88,99.42,174.71ZM125,114.2a5.68,5.68,0,0,1,.39-.67l.83.28c.94,1.32,1,2.92.5,6.07l-.17.88c-.33,1.22-.49,2.77-.88,4.54l-.28.21C124.15,120.54,124.09,116.51,125,114.2Zm-6.9,43.06-.61.22a32.71,32.71,0,0,1,2.77-5.74,82.89,82.89,0,0,0,5.59-13.24,33.66,33.66,0,0,0,8.44,11.86,18.21,18.21,0,0,0,2.27,1.77A104.44,104.44,0,0,0,118.13,157.26Zm41.27-.32h-.23a5.85,5.85,0,0,1-1.06.11c-2.54,0-6.46-1.05-10.48-2.82a1.42,1.42,0,0,1,1.26-.55c7.73,0,10,1.37,10.51,1.93a2.15,2.15,0,0,1,.49.6C159.84,156.76,159.67,156.83,159.4,156.94Z"/>
    </g>
  </g>
</svg>
