<svg id="Ebene_1" data-name="Ebene 1" xmlns="http://www.w3.org/2000/svg" width="258" height="258" viewBox="0 0 258 258">
  <defs>
    <style>
      .cls-1, .cls-2 {
        fill: none;
        stroke: #77bc1f;
        stroke-width: 7.5px;
      }

      .cls-1 {
        stroke-linejoin: round;
      }

      .cls-2 {
        stroke-miterlimit: 10;
      }
    </style>
  </defs>
  <title>010-Pflichtenheft</title>
  <g>
    <path class="cls-1" d="M129,166.54V99.85C102.52,83.16,74.72,92,74.72,92v66.69S103.39,148.71,129,166.54Z"/>
    <path class="cls-1" d="M129.22,166.54V99.85C155.75,83.16,183.54,92,183.54,92v66.69S154.88,148.71,129.22,166.54Z"/>
    <path class="cls-2" d="M193.63,101.38c4.21,1,4.64,1.48,4.64,1.48V175.2s-46.45-15.12-69.27,8.29c-22.82-23.41-69.27-8.29-69.27-8.29V102.86s.15-.44,4.36-1.4"/>
    <line class="cls-2" x1="129.04" y1="168.37" x2="129.04" y2="183.49"/>
    <path class="cls-1" d="M95.31,105.61a65,65,0,0,0-11.68.78"/>
    <path class="cls-1" d="M120.93,111.74a59.8,59.8,0,0,0-20.37-5.81"/>
    <path class="cls-1" d="M90.05,121.83a63.6,63.6,0,0,0-6.42.69"/>
    <path class="cls-1" d="M120.93,127.87a60.77,60.77,0,0,0-25.62-6.13"/>
    <path class="cls-1" d="M120.93,142.24a58,58,0,0,0-10.23-3.89c-1.59-.45-3.16-.81-4.69-1.11a65.37,65.37,0,0,0-22.38-.35"/>
    <path class="cls-1" d="M137.85,111.82c14.78-7.29,29.25-6.56,37.06-5.32"/>
    <path class="cls-1" d="M161,121.85a65.55,65.55,0,0,1,13.94.68"/>
    <path class="cls-1" d="M137.85,127.85a59.47,59.47,0,0,1,20.31-5.78"/>
    <path class="cls-1" d="M152,137.28a64.8,64.8,0,0,1,22.88-.47"/>
    <path class="cls-1" d="M137.85,142.12a59.36,59.36,0,0,1,9.59-3.71"/>
    <circle class="cls-2" cx="129" cy="129" r="125"/>
  </g>
</svg>
