<svg id="Ebene_1" data-name="Ebene 1" xmlns="http://www.w3.org/2000/svg" width="258" height="258" viewBox="0 0 258 258">
  <defs>
    <style>
      .cls-1 {
        fill: none;
        stroke: #77bc1f;
        stroke-miterlimit: 10;
        stroke-width: 7.5px;
      }
    </style>
  </defs>
  <title>080-Schluessel</title>
  <g>
    <circle class="cls-1" cx="129" cy="129" r="125"/>
    <g>
      <g>
        <path class="cls-1" d="M182.19,90.77a38,38,0,1,0-73.06,14.71L60.21,154.36v20.38H80.59V163H92.31V151.3H104V139.59h11.72l13.34-13.94a38,38,0,0,0,53.11-34.88Z"/>
        <circle class="cls-1" cx="152.88" cy="82.07" r="10.14"/>
      </g>
      <path class="cls-1" d="M130.78,126.33c1,1.76,4.72,5.33,5.78,6.33L115,189l7.24,16.24L138.43,198l-4.16-9.33,9.33-4.17-4.16-9.34,9.34-4.16-4.17-9.34,9.34-4.16,5.67-15.85A33.17,33.17,0,0,0,189.55,95a41.71,41.71,0,0,0-7.36-10.55"/>
      <path class="cls-1" d="M161.78,77.2s-3.57,4.08-5.77,1.28,3-19.55,20-22.92c17.66-3.51,27.94,15.53,11.7,35.93"/>
    </g>
  </g>
</svg>
