<svg id="Ebene_1" data-name="Ebene 1" xmlns="http://www.w3.org/2000/svg" width="258" height="258" viewBox="0 0 258 258">
  <defs>
    <style>
      .cls-1, .cls-2, .cls-4 {
        fill: none;
        stroke: #77bc1f;
        stroke-width: 7.5px;
      }

      .cls-1 {
        stroke-miterlimit: 10;
      }

      .cls-2 {
        stroke-linejoin: round;
      }

      .cls-3 {
        fill: #77bc1f;
      }

      .cls-4 {
        stroke-linejoin: bevel;
      }
    </style>
  </defs>
  <title>055-SEO-SEM-Crawler</title>
  <g>
    <path class="cls-1" d="M121.71,59.28,105.85,77.14a9.64,9.64,0,0,0,7.2,16h32.14a9.64,9.64,0,0,0,7.12-16.13L136,59.19A9.64,9.64,0,0,0,121.71,59.28Z"/>
    <g>
      <polyline class="cls-2" points="186.29 124.79 186.29 80.93 165.47 80.93"/>
      <polyline class="cls-2" points="92.52 80.93 71.71 80.93 71.71 186.28 140.63 186.28"/>
    </g>
    <circle class="cls-3" cx="129.04" cy="75.21" r="6.93"/>
    <circle class="cls-1" cx="129" cy="129" r="125"/>
    <line class="cls-4" x1="100.35" y1="115.56" x2="159.75" y2="115.56"/>
    <line class="cls-4" x1="100.35" y1="130.79" x2="135.97" y2="130.79"/>
    <line class="cls-4" x1="100.35" y1="146.02" x2="125.04" y2="146.02"/>
    <line class="cls-4" x1="100.35" y1="161.25" x2="131.77" y2="161.25"/>
    <g>
      <circle class="cls-1" cx="170.59" cy="158.09" r="23.91"/>
      <line class="cls-1" x1="189.1" y1="173.22" x2="208.32" y2="192.44"/>
    </g>
  </g>
</svg>
