<svg id="Ebene_1" data-name="Ebene 1" xmlns="http://www.w3.org/2000/svg" width="258" height="258" viewBox="0 0 258 258">
  <defs>
    <style>
      .cls-1 {
        fill: none;
        stroke: #77bc1f;
        stroke-miterlimit: 10;
        stroke-width: 7.5px;
      }
    </style>
  </defs>
  <title>143-Serviceprovider</title>
  <g>
    <path class="cls-1" d="M166.92,149.27h7a28.51,28.51,0,0,0,8-55.87,37,37,0,0,0-67.88-16.59A27,27,0,0,0,79.19,95.37a27.06,27.06,0,0,0,3.4,53.9h7.77"/>
    <circle class="cls-1" cx="129" cy="129" r="125"/>
  </g>
  <circle class="cls-1" cx="129" cy="197.98" r="15"/>
  <line class="cls-1" x1="129" y1="182.98" x2="129" y2="104.56"/>
  <g>
    <circle class="cls-1" cx="176.32" cy="182.98" r="10.61"/>
    <polyline class="cls-1" points="168.82 175.48 152.57 159.22 152.57 121"/>
  </g>
  <g>
    <circle class="cls-1" cx="81.68" cy="182.98" r="10.61"/>
    <polyline class="cls-1" points="89.18 175.48 105.43 159.22 105.43 121"/>
  </g>
</svg>
