<svg id="Ebene_1" data-name="Ebene 1" xmlns="http://www.w3.org/2000/svg" width="258" height="258" viewBox="0 0 258 258">
  <defs>
    <style>
      .cls-1, .cls-2, .cls-3 {
        fill: none;
        stroke: #77bc1f;
      }

      .cls-1, .cls-2 {
        stroke-miterlimit: 10;
      }

      .cls-1, .cls-3 {
        stroke-width: 7.5px;
      }

      .cls-2 {
        stroke-width: 7.5px;
      }

      .cls-3 {
        stroke-linecap: round;
        stroke-linejoin: round;
      }
    </style>
  </defs>
  <title>094-Smart-Watch</title>
  <g>
    <g>
      <path class="cls-1" d="M78,88.11l-9.66,60.16a8.25,8.25,0,0,0,6.93,9.49L106,161a10.42,10.42,0,0,0,11.88-8.85l9.26-63.33a7.51,7.51,0,0,0-7.39-8.56H87.24A9.38,9.38,0,0,0,78,88.11Z"/>
      <path class="cls-1" d="M136.86,100.92l.64-4.65s.87-7.3-1.58-10.49c-2-2.57-8.15-7.39-10.65-7.45H90.15a11.83,11.83,0,0,0-8.67,4"/>
      <path class="cls-1" d="M69.37,153.68s3.32,8.27,11.35,9.26l30.22,3.49,9.2.76s8.51-2.21,10-15.08l5.18-39.31"/>
      <ellipse class="cls-1" cx="132.84" cy="106.11" rx="5.53" ry="7.51"/>
    </g>
    <circle class="cls-2" cx="129" cy="129" r="125"/>
    <path class="cls-3" d="M93.43,78.05c4-4,20.74-13.85,33-15.45,14.06-1.85,30.41-1.18,41.42,6.23,14.12,9.5,20.53,22.42,18.95,56.13-1.78,38.3-6.27,45.65-12.42,55.23s-11.19,13.75-21.76,17.61c-11.27,4.11-31.54,2.83-41.31-2.1S84.71,176.42,79.56,159"/>
    <path class="cls-3" d="M132.74,82.64c.2-5.44,1.55-11.53,11.26-14.23,14.53-4,40.57,23.92,42.92,52.27"/>
    <path class="cls-3" d="M120.14,167.19c-.14,4.06,2.91,16.61,8.43,20.33,9.77,6.57,22.08,3.72,32.13-3.19C170,178,178.87,173.13,185,147.7"/>
    <path class="cls-3" d="M135.34,74.92c3.62,1.39,12.56,12.35,15.14,18,3.73,8.23,3.66,16.71,2.63,36.06s-1.72,27.83-8.43,39.91-11.81,14.19-17.49,17.32"/>
  </g>
</svg>
