<svg id="Ebene_1" data-name="Ebene 1" xmlns="http://www.w3.org/2000/svg" width="258" height="258" viewBox="0 0 258 258">
  <defs>
    <style>
      .cls-1 {
        fill: none;
        stroke: #77bc1f;
        stroke-miterlimit: 10;
        stroke-width: 7.5px;
      }

      .cls-2 {
        fill: #77bc1f;
      }
    </style>
  </defs>
  <title>067-Spiele-und-Spass</title>
  <g>
    <path class="cls-1" d="M129.08,98.93c12,0,24.1-.17,36.14,0a34.84,34.84,0,0,1,33.59,28,57.33,57.33,0,0,1,.82,10.81c.09,12.26.06,24.52,0,36.77a26,26,0,0,1-2.81,12.17c-3.09,5.88-8,8.33-14.67,7.86-9.51-.67-16.39-5.38-21.33-13.24-2.23-3.56-4.3-7.22-6.39-10.87a1.87,1.87,0,0,0-1.87-1.07q-23.43,0-46.87,0a2.32,2.32,0,0,0-2.23,1.31c-3,4.87-5.71,10-9.2,14.48-5.82,7.49-13.9,10.25-23.21,9.17-4.62-.53-7.61-3.57-9.75-7.48a24.51,24.51,0,0,1-2.88-11.82c-.07-13.78-.2-27.57,0-41.35a34.81,34.81,0,0,1,28.14-34c4.38-.88,9-.76,13.49-.82,9.68-.11,19.36,0,29,0Z"/>
    <path class="cls-2" d="M164.39,115a6.48,6.48,0,0,1,6.33,6.26,6.34,6.34,0,1,1-12.67,0A6.37,6.37,0,0,1,164.39,115Z"/>
    <path class="cls-2" d="M151.53,127.87a6.52,6.52,0,0,1,6.3,6.3,6.34,6.34,0,1,1-12.67-.1A6.38,6.38,0,0,1,151.53,127.87Z"/>
    <path class="cls-2" d="M177.19,140.5a6.52,6.52,0,0,1-6.24-6.35,6.32,6.32,0,0,1,12.64-.06A6.53,6.53,0,0,1,177.19,140.5Z"/>
    <path class="cls-2" d="M164.54,140.76a6.32,6.32,0,1,1-6.48,6.09A6.49,6.49,0,0,1,164.54,140.76Z"/>
    <path class="cls-1" d="M129.08,98.89s-2.48-22.45,23.08-22.45,22.32-23.68,22.32-23.68"/>
    <line class="cls-1" x1="93.68" y1="117.64" x2="93.68" y2="150.74"/>
    <line class="cls-1" x1="110.24" y1="134.34" x2="77.13" y2="134.34"/>
    <circle class="cls-1" cx="129" cy="129" r="125"/>
  </g>
</svg>
