<svg id="Ebene_1" data-name="Ebene 1" xmlns="http://www.w3.org/2000/svg" width="258" height="258" viewBox="0 0 258 258">
  <defs>
    <style>
      .cls-1 {
        fill: none;
        stroke: #77bc1f;
        stroke-miterlimit: 10;
        stroke-width: 7.5px;
      }
    </style>
  </defs>
  <title>071-Start-up</title>
  <g>
    <path class="cls-1" d="M192.47,66a124.76,124.76,0,0,1,0,15.59,96.69,96.69,0,0,1-2.88,15.76c-5.58,21.12-14.52,33.21-32.14,45.6l-.24.16L149.43,176l-11.79-19.84A99.07,99.07,0,0,1,126.31,161a2.49,2.49,0,0,1-3.12-.72C115,152,106.67,143.79,98.47,135.46a3.4,3.4,0,0,1-1-2.78,72.12,72.12,0,0,1,4.12-10L82.81,109.35l32.34-7.71c9.15-13.33,17.32-20.31,33.13-27.87a74.93,74.93,0,0,1,27.39-7.59c.58,0,2.26-.16,3-.18C183.5,65.88,187.19,65.72,192.47,66Z"/>
    <path class="cls-1" d="M134.76,131.24a7.34,7.34,0,1,0-7.47-7.34A7.36,7.36,0,0,0,134.76,131.24Z"/>
    <path class="cls-1" d="M171.19,99.65A12.19,12.19,0,0,0,159.1,87.32a12.21,12.21,0,1,0-.18,24.42A12.09,12.09,0,0,0,171.19,99.65Z"/>
    <path class="cls-1" d="M107,165.11c-.06-.05-.17-.05-.38-.11L89,168.79l4.65-16.64-4.26-4.61c-16.8,7.68-26.7,26.41-23.12,43.76.28.07.6.19.92.24,16.94,2.13,30.94-3,41-17.09C112.5,168.45,112.33,170.42,107,165.11Z"/>
    <circle class="cls-1" cx="129" cy="129" r="125"/>
  </g>
</svg>
