<svg id="Ebene_1" data-name="Ebene 1" xmlns="http://www.w3.org/2000/svg" width="258" height="258" viewBox="0 0 258 258">
  <defs>
    <style>
      .cls-1 {
        fill: none;
        stroke: #77bc1f;
        stroke-miterlimit: 10;
        stroke-width: 7.5px;
      }
    </style>
  </defs>
  <title>132-Stern</title>
  <g>
    <circle class="cls-1" cx="129" cy="129" r="125"/>
    <path class="cls-1" d="M132.07,62.35l18.65,37.79A3.41,3.41,0,0,0,153.3,102L195,108.07a3.42,3.42,0,0,1,1.9,5.84l-30.17,29.41a3.41,3.41,0,0,0-1,3l7.13,41.53a3.43,3.43,0,0,1-5,3.61l-37.3-19.61a3.38,3.38,0,0,0-3.18,0l-37.3,19.61a3.43,3.43,0,0,1-5-3.61l7.13-41.53a3.41,3.41,0,0,0-1-3L61.11,113.91a3.42,3.42,0,0,1,1.9-5.84L104.7,102a3.41,3.41,0,0,0,2.58-1.87l18.65-37.79A3.43,3.43,0,0,1,132.07,62.35Z"/>
  </g>
</svg>
