<svg id="Ebene_1" data-name="Ebene 1" xmlns="http://www.w3.org/2000/svg" width="258" height="258" viewBox="0 0 258 258">
  <defs>
    <style>
      .cls-1 {
        fill: none;
        stroke: #77bc1f;
        stroke-miterlimit: 10;
        stroke-width: 7.5px;
      }
    </style>
  </defs>
  <title>017-Support-Mitarbeiter</title>
  <g>
    <path class="cls-1" d="M60,193.87V182.39a18.48,18.48,0,0,1,8-15.25,78.29,78.29,0,0,1,26.53-11.53c23.15-5.45,17.45-15.88,13.71-20.88-10.08-13.47-14.43-10.45-16.43-38.57C89.08,58,115.3,48.66,129,48.66s39.92,9.35,37.21,47.5c-2,28.12-8.62,25.1-16.43,38.57-3.13,5.4-9.44,15.43,13.71,20.88a78,78,0,0,1,26.79,11.71,18,18,0,0,1,7.7,14.76v11.79Z"/>
    <path class="cls-1" d="M139.91,117.4c20.88,0,26-16.79,26-16.79"/>
    <path class="cls-1" d="M135.5,117.4h-8.31"/>
    <path class="cls-1" d="M254,129A125,125,0,1,1,129,4,125,125,0,0,1,254,129Z"/>
  </g>
</svg>
