<svg id="Ebene_1" data-name="Ebene 1" xmlns="http://www.w3.org/2000/svg" width="258" height="258" viewBox="0 0 258 258">
  <defs>
    <style>
      .cls-1 {
        fill: none;
        stroke: #77bc1f;
        stroke-miterlimit: 10;
        stroke-width: 7.5px;
      }

      .cls-2 {
        fill: #77bc1f;
      }
    </style>
  </defs>
  <title>018-Technischer-Support</title>
  <g>
    <path class="cls-1" d="M134,101.41l25.88-26.17a19.29,19.29,0,1,1,27.65,26.9l0,0-26.21,26.49"/>
    <line class="cls-1" x1="148.23" y1="114.29" x2="178.96" y2="83.5"/>
    <polyline class="cls-1" points="106.6 147.03 87.74 165.72 70.27 171.1 67.01 191.34 69.95 194.28 71.19 195.47 74.13 198.41 95.21 194.21 99.75 177.68 118.61 158.99"/>
    <path class="cls-1" d="M78.48,70.49,96.84,88.85a4.39,4.39,0,0,1,0,6.2l-5.71,5.71a4.39,4.39,0,0,1-6.2,0L66.6,82.43A30,30,0,0,0,71.14,117a29.54,29.54,0,0,0,22.31,9.19,17.72,17.72,0,0,1,13,5.25l63,63a15,15,0,0,0,21.14-21.15l-63-63a17.38,17.38,0,0,1-5.27-12.76,29.65,29.65,0,0,0-43.82-27.1Z"/>
    <circle class="cls-2" cx="180.88" cy="184.8" r="5.55"/>
    <path class="cls-1" d="M254,129A125,125,0,1,1,129,4,125,125,0,0,1,254,129Z"/>
  </g>
</svg>
