<svg id="Ebene_1" data-name="Ebene 1" xmlns="http://www.w3.org/2000/svg" width="258" height="258" viewBox="0 0 258 258">
  <defs>
    <style>
      .cls-1 {
        fill: none;
        stroke: #77bc1f;
        stroke-miterlimit: 10;
        stroke-width: 7.5px;
      }

      .cls-2 {
        fill: #77bc1f;
      }
    </style>
  </defs>
  <title>057-User-Profil</title>
  <g>
    <circle class="cls-1" cx="129" cy="129" r="125"/>
    <rect class="cls-1" x="68.77" y="73.16" width="118.32" height="130.05" rx="9.69" ry="9.69"/>
    <path class="cls-1" d="M131.31,90.46c-11-.61-16-22.26-16.89-29.26s-1.14-29,14.58-28.74,13.74,13.3,14,19.32c.39,8.4-5.91,20-5.91,20"/>
    <path class="cls-1" d="M129,176.11h27.57v-4.72a7.19,7.19,0,0,0-3.07-5.9,31.45,31.45,0,0,0-10.71-4.68c-9.25-2.18-6.73-6.18-5.48-8.34,3.12-5.39,5.77-4.18,6.57-15.42,1.08-15.26-9.4-19-14.88-19s-16,3.73-14.88,19c.8,11.24,2.54,10,6.57,15.42,1.5,2,3.77,6.16-5.48,8.34a31.38,31.38,0,0,0-10.6,4.61,7.37,7.37,0,0,0-3.18,6.1v4.59Z"/>
    <circle class="cls-2" cx="129" cy="93.92" r="10.14"/>
  </g>
</svg>
