<svg id="Ebene_1" data-name="Ebene 1" xmlns="http://www.w3.org/2000/svg" width="258" height="258" viewBox="0 0 258 258">
  <defs>
    <style>
      .cls-1 {
        fill: none;
        stroke: #77bc1f;
        stroke-miterlimit: 10;
        stroke-width: 7.5px;
      }
    </style>
  </defs>
  <title>077-Verlautbarung-wichtige-News-Pressemitteilung</title>
  <g>
    <g>
      <path class="cls-1" d="M163.06,121.72a15.29,15.29,0,0,0-13-15.09V85.16a4.66,4.66,0,0,0-7.31-3.83l-29,20.11H75.78c-10.66,0-20.17,7.79-21.18,18.4a20.4,20.4,0,0,0,20.3,22.39h38.82l29.06,19.93a4.66,4.66,0,0,0,7.29-3.84V136.8A15.28,15.28,0,0,0,163.06,121.72Z"/>
      <polyline class="cls-1" points="106.19 157.56 122.29 188.28 97.68 188.28 81.58 157.56"/>
      <path class="cls-1" d="M170.92,102.83a20.94,20.94,0,0,1,2.12,36.6"/>
      <path class="cls-1" d="M179.9,159.29a41.7,41.7,0,0,0,0-75.14"/>
    </g>
    <circle class="cls-1" cx="129" cy="129" r="125"/>
  </g>
</svg>
