<svg id="Ebene_1" data-name="Ebene 1" xmlns="http://www.w3.org/2000/svg" width="258" height="258" viewBox="0 0 258 258">
  <defs>
    <style>
      .cls-1, .cls-2 {
        fill: none;
        stroke: #77bc1f;
        stroke-miterlimit: 10;
        stroke-width: 7.5px;
      }

      .cls-2 {
        stroke-linecap: round;
      }
    </style>
  </defs>
  <title>075-White-Label</title>
  <g>
    <path class="cls-1" d="M254,129A125,125,0,1,1,129,4,125,125,0,0,1,254,129Z"/>
    <path class="cls-1" d="M172.85,153l-81,41.67a7.39,7.39,0,0,1-10-3.2L57.14,143.34a7.39,7.39,0,0,1,3.2-10l81.07-41.69a16.42,16.42,0,0,1,12.43-1.07L184,100.08a10.29,10.29,0,0,1,6.71,13L181,143.37A16.39,16.39,0,0,1,172.85,153Z"/>
    <path class="cls-1" d="M150.25,112.24a11.94,11.94,0,1,1-5.16,16.07A11.94,11.94,0,0,1,150.25,112.24Z"/>
    <path class="cls-2" d="M159.6,118.16s10.94-64.93,34.81-49.31c13.69,9,3.79,22-8.09,31.2"/>
  </g>
</svg>
